<svg id="Шар_1" data-name="Шар 1" xmlns="http://www.w3.org/2000/svg" viewBox="0 0 1001 372.09"><defs><style>.cls-1{fill:#fff;stroke:#fff;stroke-miterlimit:10;}</style></defs><title>Без назви-1</title><path class="cls-1" d="M89.67,715.45H80a8.75,8.75,0,0,1-8.37-6.22L.38,472.24A8.74,8.74,0,0,1,8.75,461H51.22a8.73,8.73,0,0,1,8.42,6.41l34.66,125a8.74,8.74,0,0,0,16,2l75-129.07a8.73,8.73,0,0,1,7.55-4.35h46.75a8.74,8.74,0,0,1,7.38,13.41l-149.88,237A8.72,8.72,0,0,1,89.67,715.45Z" transform="translate(0.5 -343.86)"/><path class="cls-1" d="M255.89,617.26q0-67.65,41.28-114.29t104.5-46.65q48.27,0,74.4,25.07t26.12,71.26q0,69-40.81,115.92T356,715.45q-47.35,0-73.7-25.31T255.89,617.26Zm60.64-2.8q0,53.41,46,53.41,36.39,0,57.61-33.7t21.23-79.89q0-50.38-45.95-50.38-35.69,0-57.26,33.24T316.53,614.46Z" transform="translate(0.5 -343.86)"/><path class="cls-1" d="M596.63,710.79H555.16a8.74,8.74,0,0,1-8.59-10.34L580.5,518.2a8.73,8.73,0,0,0-8.59-10.33H561.23a8.73,8.73,0,0,1-8.55-10.53l6.14-29.4a8.75,8.75,0,0,1,8.55-7H640a8.75,8.75,0,0,1,8.6,10.35L605.22,703.65A8.74,8.74,0,0,1,596.63,710.79Zm-10-330q0-15.63,11.08-26t26.94-10.38a38.12,38.12,0,0,1,26.82,10.38,33.58,33.58,0,0,1,11,21.73,37,37,0,0,1-14,32.75,39.82,39.82,0,0,1-50.63-2.47A34,34,0,0,1,586.63,380.75Z" transform="translate(0.5 -343.86)"/><path class="cls-1" d="M984.52,422.27H891.3a8.74,8.74,0,0,0-8.6,7.16L832.61,703.62a8.75,8.75,0,0,1-8.6,7.17H780.44a8.74,8.74,0,0,1-8.6-10.31l48.95-267.9a8.74,8.74,0,0,0-8.6-10.31H724.47a8.74,8.74,0,0,1-8.59-10.33l6.58-35.7a8.74,8.74,0,0,1,8.59-7.15H991.26a8.74,8.74,0,0,1,8.59,10.35l-6.74,35.71A8.75,8.75,0,0,1,984.52,422.27Z" transform="translate(0.5 -343.86)"/><path class="cls-1" d="M262.39,370.55H453l-47.65,41.69H214.75S205.13,370.55,262.39,370.55Z" transform="translate(0.5 -343.86)"/></svg>