<svg id="Capa_1" enable-background="new 0 0 512 512" height="512" viewBox="0 0 512 512" width="512" xmlns="http://www.w3.org/2000/svg"><g><path d="m283.006 430.5c-12.393-12.393-26.999-21.207-42.548-26.447-9.532-3.213-13.141-14.915-7.066-22.932 11.402-15.048 16.993-33.568 16.115-52.125-.522-11.035 8.574-20.133 19.609-19.612 18.56.878 37.08-4.716 52.125-16.115 8.018-6.075 19.72-2.467 22.933 7.066 5.24 15.549 14.055 30.156 26.447 42.549 12.393 12.393 26.999 21.207 42.548 26.447 9.532 3.213 13.141 14.915 7.066 22.932-11.402 15.048-16.993 33.568-16.115 52.125.522 11.035-8.574 20.133-19.609 19.612-18.56-.878-37.08 4.716-52.125 16.115-8.018 6.075-19.72 2.467-22.933-7.066-5.24-15.549-14.054-30.156-26.447-42.549z" fill="#88d37f"/><path d="m283.006 430.5c-12.393-12.393-26.999-21.207-42.548-26.447-9.532-3.213-13.141-14.915-7.066-22.932 11.402-15.048 16.993-33.568 16.115-52.125-.522-11.035 8.574-20.133 19.609-19.612 18.56.878 37.08-4.716 52.125-16.115 8.018-6.075 19.72-2.467 22.933 7.066 5.24 15.549 14.055 30.156 26.447 42.549 12.393 12.393 26.999 21.207 42.548 26.447 9.532 3.213 13.141 14.915 7.066 22.932-11.402 15.048-16.993 33.568-16.115 52.125.522 11.035-8.574 20.133-19.609 19.612-18.56-.878-37.08 4.716-52.125 16.115-8.018 6.075-19.72 2.467-22.933-7.066-5.24-15.549-14.054-30.156-26.447-42.549z" fill="#88d37f"/><path d="m413.169 369.331c-15.548-5.24-30.155-14.054-42.548-26.447s-21.207-27-26.447-42.549c-3.213-9.533-14.915-13.14-22.933-7.066-15.046 11.399-33.566 16.993-52.125 16.115-11.035-.522-20.131 8.577-19.609 19.612.212 4.472.038 8.94-.492 13.359 7.047 7.413 11.643 16.866 13.038 26.985 4.273 31 37.909 48.709 65.862 34.849 21.949-10.884 47.996-10.874 69.927.001 4.241 2.103 8.599 3.466 12.958 4.182 2.486-5.67 5.629-11.086 9.436-16.11 6.075-8.017 2.466-19.719-7.067-22.931z" fill="#5ec682"/><path d="m352.912 420.291c-1.92 0-3.839-.732-5.304-2.197l-46.04-46.041c-2.929-2.929-2.929-7.678 0-10.606 2.93-2.929 7.678-2.929 10.607 0l46.04 46.041c2.929 2.929 2.929 7.678 0 10.606-1.464 1.464-3.384 2.197-5.303 2.197z" fill="#5ec682"/><path d="m362.877 364.925c-17.526 0-34.087 4.096-48.787 11.385-9.012 4.469-19.839-1.254-21.212-11.219-2.578-18.703-11.72-35.752-25.463-48.253-8.172-7.434-8.173-20.299-.002-27.733 13.744-12.503 22.885-29.555 25.463-48.254 1.374-9.965 12.2-15.688 21.212-11.22 14.7 7.289 31.262 11.386 48.788 11.386s34.087-4.096 48.787-11.385c9.012-4.469 19.839 1.254 21.212 11.219 2.578 18.703 11.72 35.752 25.463 48.253 8.172 7.434 8.173 20.299.002 27.733-13.744 12.503-22.884 29.554-25.463 48.253-1.374 9.965-12.2 15.689-21.212 11.22-14.7-7.288-31.261-11.385-48.788-11.385z" fill="#90daaa"/><path d="m391.08 310.471h-56.405c-4.143 0-7.5-3.358-7.5-7.5s3.357-7.5 7.5-7.5h56.405c4.143 0 7.5 3.358 7.5 7.5s-3.357 7.5-7.5 7.5z" fill="#6fcd90"/><path d="m64.241 495.291c-22.279-22.279-22.279-58.401 0-80.68l223.419-223.419c17.625-17.625 17.625-46.303 0-63.928s-46.302-17.625-63.927 0c-22.279 22.279-58.401 22.279-80.68 0s-22.279-58.401 0-80.68c62.112-62.112 163.175-62.112 225.287 0s62.112 163.176 0 225.288l-223.419 223.419c-22.279 22.279-58.401 22.279-80.68 0z" fill="#fbf1cf"/><path d="m271.33.766c1.951 38.431-6.723 83.334-14.535 113.305 11.207.27 22.331 4.659 30.865 13.192 13.752 13.752 16.773 34.232 9.065 50.941 31.202 5.596 78.147 8.868 116.504 4.273 7.045-48.146-7.915-98.921-44.889-135.894-27.084-27.083-61.574-42.353-97.01-45.817z" fill="#e68a97"/><path d="m274.628 365.583c-15.677-35.581-31.647-88.839-35.98-125.38l-89.898 89.898c4.333 36.541 20.302 89.799 35.98 125.38z" fill="#e68a97"/><path d="m223.732 127.264c2.5-2.5 5.228-4.632 8.109-6.423-39.704-18.469-49.59-86.559-16.553-115.661-26.483 6.899-51.526 20.694-72.236 41.404-22.279 22.279-22.279 58.401 0 80.68s58.401 22.279 80.68 0z" fill="#fae0bd"/><path d="m64.241 414.611c-22.279 22.279-22.279 58.401 0 80.68s58.401 22.279 80.68 0l39.809-39.81c-15.678-35.581-31.647-88.839-35.98-125.38z" fill="#fae0bd"/><path d="m148.751 330.101c4.333 36.541 20.302 89.799 35.98 125.38l47.62-47.619c-47.511-8.872-56.844-75.378-47.65-113.71z" fill="#e26e7e"/></g></svg>