<?xml version="1.0" standalone="no"?>
<!DOCTYPE svg PUBLIC "-//W3C//DTD SVG 20010904//EN"
 "http://www.w3.org/TR/2001/REC-SVG-20010904/DTD/svg10.dtd">
<svg version="1.0" xmlns="http://www.w3.org/2000/svg"
 width="512.000000pt" height="512.000000pt" viewBox="0 0 512.000000 512.000000"
 preserveAspectRatio="xMidYMid meet">

<g transform="translate(0.000000,512.000000) scale(0.100000,-0.100000)"
fill="#000000" stroke="none">
<path d="M2541 4724 c0 -11 3 -14 6 -6 3 7 2 16 -1 19 -3 4 -6 -2 -5 -13z"/>
<path d="M2580 4737 c0 -2 14 -16 31 -33 18 -17 28 -22 24 -12 -6 14 -55 55
-55 45z"/>
<path d="M2486 4691 c-17 -19 -12 -56 7 -44 6 4 8 0 4 -11 -5 -13 -3 -15 12
-7 10 6 20 9 22 8 2 -1 -4 6 -14 16 -11 11 -15 26 -12 38 8 24 3 24 -19 0z"/>
<path d="M2564 4648 c3 -10 1 -18 -5 -18 -6 0 -8 -4 -4 -10 3 -5 0 -19 -7 -30
-11 -17 -11 -22 2 -30 13 -8 12 -10 -3 -10 -10 0 -16 -4 -13 -8 3 -5 7 -21 10
-36 3 -15 19 -41 35 -59 48 -48 39 -84 -21 -94 -26 -4 -43 0 -62 13 -33 25
-32 42 4 82 17 18 30 37 30 41 0 16 -30 33 -50 28 -11 -3 -18 -1 -15 4 10 15
-41 89 -61 89 -11 0 7 -55 21 -66 21 -16 36 -64 28 -88 -4 -11 -6 -30 -4 -42
1 -11 -3 -33 -9 -49 -10 -27 -12 -27 -27 -12 -16 16 -16 18 1 30 16 12 16 13
-3 13 -14 0 -21 -7 -21 -18 0 -27 -29 -21 -36 7 -8 31 -24 33 -24 3 -1 -22 -1
-23 -15 -4 -8 11 -15 15 -15 8 0 -6 -10 -16 -22 -23 -18 -9 -20 -9 -15 4 3 8
3 18 -1 22 -4 4 -7 11 -7 16 0 5 -3 9 -7 9 -5 0 -12 0 -17 0 -6 0 -3 -16 5
-35 19 -47 18 -52 -8 -24 -14 16 -19 18 -15 7 9 -25 -42 -100 -62 -93 -12 4
-12 2 2 -9 22 -17 22 -22 -5 -59 -12 -17 -17 -28 -11 -24 7 5 9 0 6 -12 -4
-14 -12 -18 -31 -16 -15 2 -21 2 -14 -1 6 -3 12 -12 12 -19 0 -9 8 -11 23 -7
19 5 20 3 9 -11 -11 -13 -18 -14 -37 -5 -14 6 -22 16 -18 21 3 6 -4 3 -18 -6
-13 -9 -31 -17 -40 -17 -9 0 -25 -15 -36 -32 -16 -28 -17 -40 -8 -76 6 -24 13
-40 16 -37 4 3 12 -1 19 -10 11 -13 10 -15 -6 -12 -11 1 -23 5 -29 8 -5 4 -22
9 -37 13 -43 10 -41 -10 2 -23 22 -6 40 -18 40 -26 0 -20 -28 -45 -50 -45 -10
0 -22 -5 -25 -10 -4 -6 -11 -7 -17 -4 -7 5 -8 2 -3 -5 4 -8 21 -11 46 -7 37 5
38 4 27 -14 -12 -18 -13 -18 -19 -3 -5 14 -6 14 -11 -5 -3 -11 -1 -23 6 -26 7
-3 4 -10 -8 -20 -16 -13 -17 -18 -6 -31 11 -13 9 -15 -11 -16 -13 -1 -30 -1
-36 0 -7 1 -13 -5 -13 -13 0 -8 -4 -18 -10 -21 -6 -4 -7 1 -3 12 8 23 -1 15
-17 -16 -8 -15 -8 -21 -1 -17 6 4 11 0 11 -8 0 -9 -8 -16 -17 -17 -11 0 -13
-3 -5 -6 6 -2 12 -11 12 -18 0 -7 9 -15 20 -18 13 -3 20 -1 18 8 -2 7 8 22 22
33 24 19 24 21 7 40 -13 14 -15 22 -7 27 11 7 24 -4 34 -30 2 -6 11 -5 25 3
12 7 21 8 21 2 0 -5 6 -10 14 -10 7 0 19 -7 27 -16 11 -14 14 -13 23 4 18 32
64 82 75 82 6 0 11 -6 11 -14 0 -7 6 -18 13 -24 18 -15 14 -58 -8 -82 -21 -24
-73 -27 -81 -5 -4 8 -12 15 -19 15 -7 0 -16 6 -18 13 -3 6 -6 2 -6 -10 -1 -12
-3 -30 -6 -40 -3 -11 -1 -9 6 5 13 24 29 30 29 10 0 -14 -26 -58 -58 -97 -16
-20 -22 -22 -40 -12 -31 17 -108 -8 -89 -29 9 -10 9 -11 0 -6 -8 4 -13 2 -13
-6 0 -10 -3 -9 -11 2 -9 13 -10 12 -5 -2 3 -10 1 -20 -4 -23 -6 -4 -10 1 -10
9 0 8 -8 14 -18 13 -15 -1 -16 -5 -8 -23 11 -24 33 -25 50 -3 20 26 70 53 74
41 2 -7 9 -12 16 -12 7 0 20 -8 29 -18 28 -31 9 -152 -25 -152 -7 0 -5 7 4 18
30 35 29 46 -2 14 -27 -30 -36 -33 -65 -28 -19 4 -38 13 -42 20 -10 16 -51 27
-59 15 -3 -5 2 -12 10 -15 9 -4 16 -18 16 -34 0 -34 -51 -93 -73 -84 -18 6
-32 -12 -17 -21 8 -5 7 -11 -1 -21 -16 -20 1 -17 24 4 19 17 20 16 7 -7 -9
-18 -9 -22 0 -16 25 15 29 -19 7 -57 -22 -40 -82 -82 -69 -49 5 13 3 14 -10 4
-8 -7 -18 -10 -21 -6 -4 3 -7 1 -7 -5 0 -6 7 -15 16 -20 14 -8 14 -10 -1 -22
-13 -11 -15 -10 -10 1 4 10 -2 15 -15 16 -11 1 -20 -3 -20 -8 0 -6 5 -7 10 -4
6 3 10 2 10 -4 0 -6 -16 -18 -35 -27 -19 -9 -35 -21 -35 -26 0 -6 11 -3 24 6
23 14 26 14 40 0 20 -19 20 -29 1 -48 -20 -20 -19 -37 3 -29 15 6 15 4 -2 -15
-23 -27 -27 -27 -20 -4 5 16 5 16 -9 0 -8 -10 -18 -14 -22 -10 -4 4 -5 -3 -2
-16 3 -15 -1 -30 -11 -40 -20 -20 -17 -52 3 -52 8 0 16 -3 19 -8 2 -4 -17 -8
-42 -9 -37 -1 -51 -6 -69 -27 -23 -28 -32 -86 -12 -86 5 0 7 5 4 10 -3 6 1 10
9 10 20 0 20 -9 2 -24 -10 -7 -13 -21 -9 -38 4 -22 8 -25 19 -15 42 38 42 38
58 15 8 -12 12 -26 8 -32 -3 -6 -5 -19 -4 -28 2 -12 -3 -18 -16 -18 -15 0 -19
-5 -15 -20 6 -21 -20 -29 -32 -10 -10 16 -22 11 -28 -12 -7 -23 8 -58 24 -58
6 0 3 7 -5 16 -9 8 -16 21 -16 27 0 7 5 5 10 -4 5 -9 20 -19 33 -23 32 -8 33
-51 2 -98 -40 -60 -61 -51 -75 30 l-8 47 -1 -46 c-1 -41 -4 -48 -26 -53 -15
-4 -25 -13 -25 -24 0 -12 3 -13 8 -5 4 7 17 10 29 7 26 -7 20 -32 -11 -44 -18
-8 -19 -9 -2 -9 12 -1 16 -6 12 -17 -3 -9 -6 -17 -6 -20 0 -2 -7 -1 -15 2 -8
4 -15 1 -15 -7 0 -7 3 -9 6 -6 11 11 44 -13 43 -31 0 -12 -2 -13 -6 -4 -3 9
-13 -2 -24 -27 -22 -49 -30 -52 -24 -8 l5 32 -10 -30 c-15 -46 6 -57 37 -20
l25 30 -21 -42 c-12 -23 -17 -44 -12 -47 5 -4 7 -16 4 -27 -5 -19 -4 -20 16
-9 12 6 25 18 28 26 10 26 21 14 27 -31 4 -24 12 -47 17 -51 11 -6 -37 -64
-54 -64 -4 0 -15 7 -24 15 -18 19 -26 14 -47 -30 -17 -35 -34 -40 -65 -21 -10
6 -12 5 -7 -3 8 -12 -32 -81 -46 -81 -4 0 -5 -9 -3 -20 3 -16 -2 -20 -21 -20
-38 0 -64 -33 -64 -83 0 -24 5 -48 12 -55 18 -18 46 -14 53 8 7 22 25 18 25
-6 0 -9 -5 -12 -12 -8 -6 4 -8 3 -5 -4 4 -5 13 -9 20 -8 22 3 64 41 71 64 4
12 11 22 15 22 15 0 46 -29 38 -36 -4 -4 1 -16 10 -26 11 -12 17 -34 16 -59
-1 -23 2 -37 8 -34 5 4 9 1 9 -5 0 -6 -7 -10 -16 -8 -9 2 -27 -12 -41 -32 -17
-23 -18 -27 -4 -11 24 26 42 22 20 -5 -12 -15 -11 -16 11 -9 34 10 49 25 54
55 2 14 9 24 15 22 17 -4 25 26 11 43 -9 11 -10 15 -1 15 13 0 46 29 40 35 -2
2 -17 -7 -33 -20 -25 -20 -28 -26 -17 -39 11 -14 11 -16 -4 -16 -10 0 -15 3
-12 7 4 3 0 15 -9 25 -16 17 -15 18 14 24 18 4 34 14 37 25 9 26 20 24 33 -6
8 -17 20 -25 37 -25 28 0 32 -12 10 -30 -8 -7 -15 -21 -15 -32 0 -25 19 -60
28 -54 5 3 14 1 21 -4 10 -6 8 -9 -8 -15 -11 -3 -21 -13 -21 -21 0 -8 -5 -14
-11 -14 -5 0 -7 6 -3 13 5 8 2 8 -9 -2 -9 -7 -17 -22 -17 -32 0 -18 2 -19 29
-5 16 9 32 23 35 33 6 15 9 15 16 3 7 -12 15 -12 43 -2 18 7 41 12 50 12 9 0
22 10 28 23 17 32 17 32 43 4 14 -15 35 -27 47 -27 l22 0 -20 -22 c-15 -16
-20 -31 -16 -50 4 -24 2 -28 -16 -28 -23 0 -29 -15 -8 -23 9 -4 9 -8 -2 -15
-21 -15 -3 -32 35 -32 19 0 34 -4 34 -10 0 -14 -43 -13 -74 1 -20 9 -29 9 -41
-1 -11 -9 -15 -10 -15 0 0 6 9 14 20 17 31 8 24 24 -7 17 -49 -10 -55 -14 -49
-29 3 -9 0 -15 -9 -15 -8 0 -15 5 -15 11 0 5 -6 7 -12 4 -7 -4 -4 1 7 10 11 9
32 19 48 22 32 7 35 18 6 34 -17 8 -20 17 -15 40 6 30 -10 51 -20 25 -5 -14
-8 -14 -27 -1 -30 21 -43 19 -23 -4 10 -11 15 -25 11 -30 -3 -7 2 -11 14 -11
12 0 21 -2 21 -5 0 -14 -27 -62 -43 -73 -9 -7 -15 -17 -12 -22 3 -5 3 -21 -1
-35 -4 -18 -13 -25 -29 -25 -28 0 -38 12 -29 35 5 11 15 15 30 12 28 -5 31 5
8 28 -12 12 -19 13 -24 5 -4 -6 -13 -10 -21 -9 -8 1 -21 -1 -29 -4 -8 -3 -28
-7 -45 -9 -26 -3 -32 -9 -45 -51 -19 -60 -54 -87 -63 -49 -3 14 -4 13 -4 -3
-1 -41 -3 -46 -19 -43 -21 4 -39 -24 -31 -46 4 -9 17 -16 30 -16 20 0 23 -4
19 -25 -2 -14 -11 -25 -21 -25 -16 0 -51 -51 -51 -74 0 -7 -7 -21 -16 -32 -8
-10 -13 -12 -9 -4 4 8 -5 2 -20 -14 -14 -16 -24 -35 -21 -43 3 -8 2 -12 -2 -9
-4 2 -12 -11 -18 -30 -6 -19 -7 -34 -3 -34 4 0 11 9 14 20 3 11 11 20 16 20 6
0 7 -5 4 -10 -4 -6 -1 -18 6 -27 11 -13 10 -17 -6 -29 -10 -8 -15 -14 -9 -14
5 0 10 -13 11 -30 1 -16 3 -36 4 -42 1 -7 -2 -21 -6 -31 -7 -16 -3 -18 21 -16
16 1 36 -1 44 -4 8 -3 30 -7 48 -10 l32 -4 0 56 c0 35 -4 51 -9 43 -7 -11 -9
-11 -14 2 -4 10 -1 16 9 16 13 0 15 8 12 35 -4 35 -4 35 29 29 21 -4 33 -2 33
5 0 6 8 11 18 11 15 -1 16 -2 1 -13 -13 -10 -17 -33 -18 -105 -2 -84 0 -93 16
-91 10 1 25 -1 33 -4 8 -3 38 -8 66 -11 40 -4 61 0 100 19 30 15 49 30 49 41
0 9 6 19 14 22 10 3 12 0 8 -11 -5 -13 2 -12 40 6 l45 22 -3 190 c-2 105 0
208 4 230 8 39 7 42 -25 57 l-33 17 38 0 c25 1 40 -4 43 -14 8 -20 64 -20 64
0 0 23 15 18 48 -17 27 -27 38 -31 84 -31 29 1 54 6 56 12 2 6 8 11 13 11 6 0
7 -5 4 -10 -11 -17 32 -11 46 7 12 14 12 16 0 9 -9 -6 -12 -4 -9 5 3 8 10 14
16 13 7 -1 30 -2 52 -2 38 -2 40 -3 40 -35 0 -33 1 -34 55 -44 49 -8 55 -8 60
8 6 19 54 22 68 4 4 -6 10 0 13 13 4 13 14 22 26 22 10 0 16 -4 13 -10 -3 -5
-2 -10 3 -10 6 0 12 -7 16 -15 4 -12 0 -14 -19 -9 -15 4 -25 2 -25 -5 0 -6 9
-11 20 -11 11 0 20 -4 20 -10 0 -5 7 -7 15 -4 11 5 13 2 9 -10 -7 -19 -3 -19
-50 0 l-39 16 19 -21 c13 -14 31 -21 58 -21 21 0 38 -4 38 -9 0 -5 14 -11 30
-13 20 -3 30 0 30 9 0 7 7 13 17 13 9 0 13 3 9 7 -3 4 -24 6 -46 5 -34 -2 -40
0 -40 18 0 18 6 20 53 19 88 -3 98 -1 95 19 -3 15 4 17 47 14 28 -2 52 -6 54
-8 3 -3 6 -70 7 -149 1 -137 3 -146 25 -170 13 -13 31 -25 40 -25 9 0 30 -7
45 -15 l29 -15 -30 -1 c-16 0 -24 -3 -17 -6 10 -4 9 -8 -5 -19 -16 -12 -15
-13 15 -14 25 0 32 4 32 20 0 12 7 20 18 20 43 -1 49 -33 7 -42 -11 -2 13 -8
53 -12 39 -4 72 -11 72 -17 0 -5 10 -9 21 -9 21 0 21 1 -4 20 -14 11 -35 20
-46 20 -14 0 -21 6 -21 20 0 15 7 20 25 20 18 0 25 -5 25 -20 0 -11 7 -20 15
-20 9 0 15 9 15 23 0 13 5 28 12 35 7 7 9 12 6 12 -4 0 -14 -7 -23 -16 -9 -9
-18 -14 -21 -11 -3 2 2 12 11 21 9 9 13 20 10 26 -11 17 18 10 58 -14 l37 -23
-32 -11 c-32 -10 -31 -11 19 -9 l53 2 0 50 c0 45 3 52 33 72 36 25 129 29 120
6 -4 -9 5 -13 26 -13 19 0 30 5 28 13 -1 7 10 13 26 15 19 2 27 -1 27 -12 0
-10 -9 -16 -23 -16 -13 0 -32 -9 -42 -20 -18 -20 -17 -20 11 -20 16 0 39 7 51
15 12 8 28 12 37 9 9 -3 24 -3 34 1 15 6 14 8 -6 16 -30 11 -24 33 10 37 22 3
25 0 21 -22 -4 -21 -1 -26 16 -26 25 0 29 20 4 21 -10 0 -13 3 -6 6 8 3 9 10
3 21 -5 9 -11 30 -15 45 -3 15 -9 25 -14 23 -5 -3 -11 3 -14 13 -6 23 -58 32
-83 14 -16 -12 -16 -13 9 -13 15 0 27 -4 27 -10 0 -5 -15 -10 -34 -10 -19 0
-38 -5 -41 -10 -7 -12 -25 -4 -25 12 0 5 7 8 15 5 15 -7 29 6 18 17 -4 3 -16
0 -27 -8 -20 -12 -21 -11 -22 15 -1 18 3 26 10 22 6 -3 5 0 -1 8 -8 7 -13 39
-13 74 0 34 -5 66 -12 73 -9 9 -7 12 9 12 12 0 25 5 28 10 3 6 30 10 58 11 38
1 45 3 27 8 -36 10 -38 39 -3 47 26 7 62 32 49 35 -3 1 -9 2 -13 3 -20 4 -31
18 -26 35 3 10 0 22 -5 25 -7 4 -6 15 3 33 10 20 11 30 2 44 -7 11 -13 15 -15
11 -3 -11 -50 -3 -58 9 -3 5 2 9 11 9 8 0 18 7 21 15 4 10 14 13 29 9 13 -3
26 -1 29 5 5 7 -2 11 -16 11 -13 1 -33 6 -46 14 -21 11 -22 14 -8 25 9 8 16 9
16 4 0 -5 27 -6 66 -2 56 6 71 11 98 38 18 19 24 29 14 25 -14 -5 -18 -1 -18
20 0 19 6 27 25 32 21 5 24 11 19 28 -6 19 -5 19 10 7 14 -12 19 -12 26 -2 6
10 9 10 15 1 4 -6 13 -9 21 -6 8 3 14 -1 14 -9 0 -8 5 -15 11 -15 6 0 9 -7 5
-15 -3 -9 0 -15 9 -15 8 0 15 -5 15 -12 0 -7 7 -5 18 5 29 26 52 4 52 -50 l0
-46 26 24 c14 13 20 25 15 27 -17 6 -13 39 5 46 19 7 61 -20 69 -45 11 -33 30
-16 36 32 5 36 3 48 -13 65 -28 31 -68 37 -68 12 0 -15 -4 -18 -17 -13 -40 16
-53 16 -75 1 -25 -18 -64 -21 -73 -6 -3 6 -1 10 5 10 8 0 7 6 -1 21 -8 16 -8
20 0 14 8 -5 10 1 6 18 -4 14 -2 33 3 44 9 16 6 18 -35 19 -32 1 -40 -2 -29
-8 25 -14 19 -30 -6 -17 -21 11 -22 11 -9 -5 8 -9 11 -20 7 -23 -4 -4 -11 -1
-16 7 -8 13 -10 12 -10 -2 0 -10 -4 -18 -10 -18 -5 0 -10 5 -10 11 0 8 -5 8
-15 -1 -12 -10 -15 -10 -15 4 0 9 -5 16 -11 16 -6 0 -9 7 -5 15 3 8 1 15 -4
15 -17 0 -11 18 8 23 16 4 16 5 0 6 -22 1 -24 21 -3 21 8 0 15 8 15 18 1 15 2
15 15 -2 15 -19 15 -19 15 5 1 23 1 23 15 5 8 -11 15 -14 15 -8 0 7 5 12 10
12 6 0 10 -7 10 -15 0 -12 4 -13 19 -5 12 6 17 17 14 28 -3 12 2 22 12 26 9 3
13 2 10 -4 -3 -5 -1 -18 4 -27 6 -10 11 -14 11 -10 0 4 10 3 21 -4 17 -9 20
-8 17 3 -3 7 -1 21 4 31 6 12 5 19 -7 23 -20 8 -20 24 1 24 8 0 12 -4 9 -10
-3 -5 -1 -10 4 -10 6 0 11 6 11 13 0 8 3 8 8 2 7 -11 82 -15 82 -4 0 14 -15
18 -28 6 -13 -10 -15 -9 -9 6 5 15 2 16 -24 12 -27 -5 -29 -3 -20 13 8 14 6
18 -10 19 -11 1 -17 -2 -14 -7 6 -9 -25 -23 -33 -15 -3 3 0 5 6 5 18 0 14 28
-4 38 -14 8 -14 10 -1 15 10 4 13 13 10 28 -5 17 -3 20 7 14 10 -6 12 -4 7 8
-3 9 -3 19 2 21 4 3 7 26 6 52 -2 36 -8 52 -25 66 -29 24 -57 23 -65 -2 -3
-11 -13 -20 -21 -20 -8 0 -14 -9 -13 -22 0 -13 3 -17 6 -10 2 6 9 12 15 12 6
0 7 -7 4 -16 -4 -9 -2 -13 5 -8 7 4 10 1 7 -7 -3 -8 -11 -13 -17 -11 -7 1 -10
-2 -6 -7 3 -6 12 -8 20 -4 8 3 15 0 15 -6 0 -6 -7 -11 -16 -11 -14 0 -15 -2
-3 -17 12 -15 12 -16 -3 -10 -10 3 -18 4 -18 1 0 -2 12 -9 26 -14 14 -6 23
-14 19 -20 -4 -6 -15 -6 -30 0 -15 6 -25 6 -25 0 0 -5 -9 -8 -20 -7 -11 1 -20
7 -20 14 0 7 -7 10 -17 6 -14 -5 -15 -3 -6 7 6 7 9 19 6 26 -3 8 0 14 6 14 6
0 11 4 11 9 0 5 -8 7 -19 4 -10 -3 -22 0 -25 6 -4 6 0 11 8 11 9 0 13 7 11 20
-4 23 -4 23 29 10 29 -11 35 2 12 25 -10 10 -16 11 -25 2 -6 -6 -11 -7 -11 -1
0 6 5 15 12 22 9 9 9 12 -1 12 -8 0 -11 6 -7 16 6 15 4 15 -18 0 -30 -19 -50
-20 -64 -4 -7 9 -3 19 11 33 11 11 17 14 13 8 -4 -7 -3 -13 3 -13 6 0 15 9 21
19 8 16 6 21 -10 26 -11 4 -18 11 -15 16 4 5 1 9 -4 9 -6 0 -11 7 -11 16 0 10
-6 14 -15 11 -8 -4 -17 -1 -21 5 -4 7 -3 8 4 4 7 -4 12 -2 12 4 0 7 -7 10 -15
7 -8 -4 -17 -2 -20 2 -2 5 8 11 24 14 20 4 32 15 39 34 l9 28 13 -27 c15 -32
30 -37 30 -10 0 10 3 22 7 26 4 3 7 15 8 26 1 16 -3 19 -18 14 -13 -4 -17 -2
-12 6 4 6 -1 18 -11 25 -11 8 -15 15 -10 15 5 0 3 7 -4 15 -11 13 -9 20 11 42
l24 26 -30 -19 c-30 -18 -30 -18 -15 1 36 49 43 53 68 37 21 -13 22 -13 15 4
-6 18 -6 18 14 1 15 -13 23 -15 28 -7 4 7 18 9 32 5 24 -6 24 -5 9 11 -19 18
-87 25 -98 10 -5 -7 -8 -7 -8 2 0 6 -6 12 -13 12 -7 0 -23 11 -34 24 -16 18
-18 27 -10 42 9 17 9 18 -6 5 -19 -15 -24 -2 -6 16 8 8 8 13 0 18 -6 3 -11 3
-10 -2 4 -20 -2 -24 -18 -12 -15 13 -15 12 -5 -8 16 -30 14 -42 -3 -19 -13 18
-14 17 -21 -8 -3 -14 -10 -26 -15 -26 -5 0 -6 -6 -3 -14 3 -7 -6 -23 -20 -33
-14 -11 -23 -23 -20 -25 8 -8 11 -77 3 -73 -4 3 -12 -2 -19 -10 -17 -21 -42
-19 -69 6 -17 16 -21 28 -17 52 3 17 10 33 15 35 6 2 11 15 11 28 0 29 16 32
25 4 3 -11 11 -20 17 -20 12 0 78 67 78 80 0 14 -13 12 -29 -2 -10 -11 -10 -8
0 15 7 15 18 27 26 27 7 0 13 7 13 15 0 8 -5 15 -11 15 -5 0 -8 -4 -5 -9 7
-10 -24 -25 -33 -16 -3 3 1 10 9 15 12 8 9 10 -10 10 -14 0 -34 7 -44 15 -23
17 -62 20 -71 5 -3 -5 0 -7 8 -4 8 3 18 1 22 -5 3 -6 -1 -11 -9 -11 -10 0 -13
-6 -9 -16 5 -13 2 -15 -15 -9 -15 4 -22 2 -22 -7 0 -10 -2 -10 -9 1 -5 8 -7
21 -5 30 3 9 -1 6 -7 -6 -7 -13 -16 -23 -21 -23 -12 0 -10 14 4 28 14 14 3 28
-27 35 -18 4 -18 5 3 6 21 1 21 2 5 19 -19 19 -38 19 -27 0 4 -6 2 -8 -3 -5
-6 4 -8 19 -5 34 3 16 7 22 9 16 6 -16 33 -17 33 -2 0 8 5 7 16 -2 13 -10 17
-10 25 2 6 10 9 11 9 1 0 -10 5 -10 20 -2 23 13 28 -7 8 -29 -11 -11 -9 -11
11 -1 21 11 23 10 18 -3 -9 -25 27 -27 49 -2 27 32 28 58 0 49 -20 -6 -20 -6
-3 13 15 17 15 21 3 26 -8 3 -16 -2 -19 -14 -3 -10 -11 -19 -18 -19 -10 0 -10
3 -1 12 18 18 14 27 -10 20 -22 -5 -22 -4 4 23 25 25 26 29 13 48 -20 28 -19
43 1 26 13 -10 17 -10 25 2 7 11 9 11 9 1 0 -8 7 -11 19 -7 25 8 48 -20 32
-39 -9 -11 -9 -15 1 -20 10 -5 10 -7 1 -12 -7 -3 -9 -12 -6 -21 5 -12 3 -14
-7 -8 -10 6 -12 3 -8 -13 4 -12 3 -24 -1 -27 -13 -7 -7 -58 7 -63 8 -2 10 2 5
15 -6 15 -4 16 9 5 13 -10 17 -10 21 0 5 11 7 11 15 0 7 -10 12 -9 23 4 12 15
12 17 0 9 -11 -6 -13 -3 -8 16 4 15 0 30 -10 41 -18 20 -27 98 -11 98 5 0 6 5
3 10 -8 12 4 52 13 46 4 -2 7 19 8 48 1 28 -1 42 -4 31 -10 -46 -55 -63 -67
-25 -3 11 -10 20 -15 20 -5 0 -7 7 -4 15 7 18 -7 20 -23 4 -7 -7 -19 -8 -30
-4 -10 5 -22 9 -28 9 -5 1 -8 10 -6 21 3 19 3 19 -18 1 -19 -17 -19 -20 -4
-42 15 -23 41 -35 27 -12 -4 7 -3 8 5 4 6 -4 9 -12 6 -17 -4 -5 1 -9 9 -9 20
0 20 -14 1 -30 -19 -16 -19 -50 0 -77 13 -19 13 -22 -1 -27 -22 -9 -24 -8 -18
9 4 9 -6 22 -28 36 -32 20 -32 21 -5 15 23 -6 27 -3 27 17 0 13 5 28 12 35 9
9 9 12 0 12 -7 0 -15 -14 -19 -31 -4 -20 -9 -27 -16 -20 -5 5 -15 8 -21 5 -6
-2 -16 7 -23 21 -9 20 -8 25 3 25 8 0 14 5 14 11 0 5 -6 7 -12 3 -8 -4 -10 -3
-5 2 5 5 13 10 18 10 5 1 12 2 16 3 13 2 -32 30 -49 31 -10 0 -18 5 -18 10 0
6 -6 10 -13 10 -7 0 -20 9 -29 19 -15 17 -15 21 -1 41 15 21 15 22 -6 11 -21
-12 -31 2 -10 14 6 4 8 13 5 20 -2 7 9 25 25 39 l30 27 27 -19 c21 -15 32 -17
50 -9 12 5 22 15 22 20 0 6 9 2 20 -8 20 -18 21 -18 34 1 8 10 12 23 9 28 -4
5 -1 6 4 3 6 -4 13 0 17 8 3 8 1 15 -3 15 -5 0 -7 10 -3 22 4 16 2 20 -10 16
-8 -4 -21 -2 -29 3 -12 8 -12 10 1 19 8 5 19 11 24 13 20 7 -8 49 -45 66 -21
11 -36 14 -32 8 3 -7 -3 -4 -15 6 -20 18 -20 18 -15 -1 6 -26 -13 -37 -35 -20
-15 12 -16 11 -3 -5 13 -16 13 -20 0 -28 -8 -5 -10 -9 -6 -9 4 0 2 -10 -5 -22
-7 -13 -11 -26 -10 -30 1 -3 -4 -8 -11 -11 -7 -3 -13 3 -13 13 0 10 4 16 8 14
4 -3 8 2 8 11 0 9 -5 13 -11 9 -8 -5 -8 -1 0 13 9 18 7 20 -12 17 -12 -1 -29
-5 -38 -9 -10 -3 -20 -1 -25 6 -4 7 -3 10 3 6 6 -4 14 0 17 9 4 11 -1 18 -14
21 -21 6 -24 12 -12 28 14 20 35 17 29 -5 -3 -11 -1 -20 4 -20 5 0 9 -6 9 -13
0 -8 7 -14 15 -14 9 0 15 10 15 24 0 13 -5 23 -11 23 -8 0 -8 5 1 15 10 12 9
15 -5 15 -13 0 -15 3 -6 13 6 8 8 17 4 20 -3 4 -1 7 5 7 7 0 12 7 12 15 0 8 5
15 10 15 6 0 10 5 10 11 0 5 -4 7 -10 4 -14 -9 -12 9 3 24 10 10 9 14 -5 22
-14 7 -17 20 -14 57 5 58 -4 76 -46 92 -18 8 -34 14 -36 15 -1 1 2 14 7 29 9
21 8 26 -5 26 -11 0 -14 -6 -10 -16 3 -8 2 -12 -4 -9 -9 5 -15 -16 -11 -38 1
-5 -3 -5 -9 -2 -6 4 -9 13 -6 21 3 8 1 14 -4 14 -6 0 -10 7 -10 15 0 8 6 15
14 15 8 0 17 7 20 16 3 8 12 12 18 9 7 -4 4 1 -7 10 -11 9 -19 24 -17 33 2 10
0 13 -5 6 -13 -18 -75 3 -71 24 3 12 12 16 33 15 28 -2 29 -1 11 12 -12 10
-25 11 -42 5 -14 -6 -26 -6 -29 0 -10 16 5 30 31 30 21 0 23 2 12 19 -7 11
-15 18 -19 15 -4 -2 -13 12 -19 31 -6 19 -16 35 -21 35 -5 0 -9 9 -9 20 0 11
-7 23 -15 26 -10 4 -13 14 -9 30 5 18 3 24 -7 22 -9 -2 -13 5 -11 20 2 12 -1
22 -7 22 -5 0 -15 15 -22 34 -12 34 -13 34 -38 18 -18 -11 -22 -11 -13 -2 6 8
12 22 12 31 0 9 7 22 15 29 8 7 15 16 15 20 0 10 -27 7 -37 -5 -4 -4 -2 -5 5
-1 6 4 12 3 12 -2 0 -6 -6 -12 -14 -15 -9 -4 -13 3 -12 21 1 17 -4 26 -11 24
-7 -1 -13 4 -13 12 0 8 -3 17 -8 20 -4 2 -7 -18 -6 -45 0 -28 -2 -46 -5 -42
-13 18 -29 11 -24 -10 5 -18 3 -20 -8 -9 -20 18 -27 15 -21 -13 3 -19 0 -25
-13 -25 -15 0 -16 2 -4 17 10 12 10 15 1 9 -7 -4 -12 -4 -11 1 1 4 1 14 0 21
-2 21 -21 3 -21 -19 0 -16 -2 -18 -14 -7 -7 7 -13 28 -12 46 1 17 -3 32 -8 32
-4 0 -3 6 3 13 6 8 9 16 6 19 -3 2 2 5 10 5 11 0 12 -4 4 -13 -8 -10 -6 -12
10 -11 19 1 20 3 5 25 -18 27 -10 62 14 62 13 0 10 6 -11 25 -20 19 -27 35
-27 63 l0 37 -20 -25 c-19 -24 -19 -24 -13 -2 7 28 -13 30 -22 2 -4 -11 -12
-20 -18 -19 -25 3 -38 -1 -32 -11 3 -5 13 -6 21 -3 12 5 15 1 10 -13 -3 -10
-7 -33 -8 -51 -2 -30 -3 -31 -18 -15 -11 12 -16 32 -14 64 2 39 -1 48 -17 53
-10 4 -19 11 -19 16 0 6 4 8 9 4 5 -3 12 -1 16 5 3 5 1 10 -5 10 -8 0 -8 6 0
21 7 11 9 23 6 27 -3 3 -6 -1 -6 -9 0 -12 -2 -11 -11 1 -9 13 -10 12 -5 -2z
m146 -158 c0 -5 -5 -10 -11 -10 -5 0 -7 5 -4 10 3 6 8 10 11 10 2 0 4 -4 4
-10z m-20 -46 c0 -8 -4 -13 -8 -10 -5 3 -21 -2 -37 -10 -29 -15 -29 -15 -11 5
10 11 23 18 27 15 5 -3 9 0 9 5 0 6 5 11 10 11 6 0 10 -7 10 -16z m-296 -119
c-5 -11 -2 -13 10 -9 9 3 16 2 17 -2 0 -5 2 -19 3 -31 2 -14 -3 -23 -11 -23
-8 0 -12 4 -9 8 2 4 1 14 -5 22 -7 13 -9 13 -9 0 -1 -12 -3 -11 -11 3 -8 13
-7 22 1 33 16 18 21 18 14 -1z m-167 -17 c-3 -8 -6 -5 -6 6 -1 11 2 17 5 13 3
-3 4 -12 1 -19z m401 -3 c6 -14 16 -25 22 -25 6 0 8 5 4 11 -3 6 8 3 25 -5 37
-20 40 -29 6 -20 -21 5 -25 3 -25 -16 0 -20 -2 -21 -16 -9 -9 8 -29 12 -43 11
-20 -3 -23 -1 -14 9 7 7 9 24 6 40 -7 37 19 40 35 4z m-388 -41 c0 -14 -21
-19 -33 -7 -9 9 13 34 24 27 5 -3 9 -12 9 -20z m330 -4 c0 -11 -7 -20 -15 -20
-18 0 -19 6 -2 25 16 19 17 18 17 -5z m-16 -48 c53 -60 56 -88 10 -109 -22
-10 -25 -10 -20 3 4 10 2 13 -7 7 -61 -38 -95 36 -41 91 24 23 24 31 2 27 -10
-1 -10 13 -2 22 9 9 22 -1 58 -41z m209 28 c4 0 5 5 2 10 -3 6 -2 10 4 10 5 0
11 -6 14 -12 3 -10 7 -10 20 1 15 11 17 11 17 -1 0 -8 -5 -19 -11 -25 -9 -9
-6 -11 12 -7 23 5 23 5 5 -10 -17 -14 -18 -16 -3 -16 9 0 17 -5 17 -11 0 -5
-5 -7 -11 -3 -8 4 -9 -1 -4 -17 7 -21 6 -22 -9 -10 -19 16 -21 8 -4 -22 10
-20 10 -21 -6 -8 -14 12 -19 12 -26 2 -6 -11 -8 -11 -12 0 -4 12 -7 12 -21 0
-20 -16 -22 -8 -6 20 10 19 9 20 -12 9 -19 -11 -21 -10 -16 4 4 9 2 16 -3 16
-6 0 -10 5 -10 10 0 6 10 10 22 10 21 0 21 0 2 16 -18 15 -18 15 5 10 18 -4
21 -2 12 7 -6 6 -11 18 -11 26 0 12 3 12 12 3 7 -7 16 -12 21 -12z m-342 -13
c-10 -9 -11 -8 -5 6 3 10 9 15 12 12 3 -3 0 -11 -7 -18z m54 13 c3 -5 -1 -10
-9 -10 -9 0 -16 5 -16 10 0 6 4 10 9 10 6 0 13 -4 16 -10z m-75 -21 c0 -5 -7
-9 -15 -9 -9 0 -12 6 -9 15 6 15 24 11 24 -6z m-43 -5 c-3 -3 -12 -4 -19 -1
-8 3 -5 6 6 6 11 1 17 -2 13 -5z m57 -75 c25 -15 39 -32 45 -57 12 -42 11 -83
-1 -76 -4 3 -8 1 -8 -3 0 -5 -9 -14 -20 -21 -21 -13 -21 -12 -4 15 l18 28 -32
-29 c-28 -26 -32 -28 -32 -10 -1 19 -1 19 -16 -1 -11 -14 -18 -16 -21 -7 -3 6
-8 10 -12 8 -16 -10 -34 14 -38 55 -4 34 -1 49 14 64 14 16 60 52 70 54 1 1
18 -8 37 -20z m555 -27 l26 -24 -30 7 c-55 12 -55 12 -42 39 7 14 14 20 16 13
2 -7 15 -22 30 -35z m51 -66 c9 -26 3 -66 -11 -66 -5 0 -8 20 -7 45 1 25 4 45
5 45 2 0 8 -11 13 -24z m-148 -87 c7 -5 22 -9 32 -9 18 0 18 -1 3 -18 -10 -10
-17 -32 -17 -48 -1 -19 -9 -35 -25 -47 -14 -10 -25 -13 -25 -8 0 5 5 13 12 17
7 5 5 12 -8 22 -16 13 -17 14 -1 9 9 -4 17 -1 17 4 0 7 -11 9 -24 7 -20 -4
-25 0 -29 21 -3 16 1 30 11 38 15 10 14 11 -6 6 -26 -6 -36 -19 -22 -28 5 -3
9 -23 9 -43 -2 -33 -2 -34 -6 -8 -3 16 -12 40 -20 53 -14 21 -14 23 1 23 25 0
56 37 56 68 1 24 2 23 15 -12 7 -21 20 -43 27 -47z m-698 52 c3 -5 -1 -11 -9
-15 -9 -3 -15 0 -15 9 0 16 16 20 24 6z m37 -49 c6 9 9 10 9 1 0 -7 7 -10 15
-7 9 4 15 0 15 -10 0 -9 5 -16 11 -16 8 0 8 -5 -1 -15 -7 -9 -8 -15 -2 -15 5
0 9 -11 8 -25 0 -14 -6 -25 -13 -25 -7 0 -10 -7 -6 -17 5 -11 3 -14 -6 -8 -8
4 -17 2 -22 -6 -7 -12 -9 -12 -9 0 0 11 -3 11 -17 0 -15 -12 -16 -12 -11 8 4
15 2 20 -7 16 -10 -3 -13 5 -13 29 1 57 -2 69 -12 63 -5 -3 -10 -4 -10 -1 0 2
-3 12 -6 20 -4 12 -2 15 9 10 8 -3 18 -1 22 5 4 8 12 6 22 -5 13 -12 17 -13
24 -2z m366 -44 c-6 -4 -17 -2 -24 4 -22 18 -15 27 11 15 16 -8 20 -14 13 -19z
m35 -3 c3 -16 1 -25 -7 -25 -8 0 -10 9 -7 25 2 14 6 25 7 25 1 0 5 -11 7 -25z
m393 15 c-3 -5 -16 -10 -28 -10 -18 0 -19 2 -7 10 20 13 43 13 35 0z m40 -40
c-3 -5 4 -14 15 -20 16 -9 22 -8 26 5 9 23 23 18 17 -7 -4 -18 -2 -20 6 -8 5
8 13 11 18 7 10 -10 -14 -25 -35 -22 -9 1 -31 8 -49 16 -24 10 -32 19 -31 35
2 18 6 21 20 13 10 -6 16 -14 13 -19z m-67 -38 c2 -7 -4 -12 -13 -12 -9 0 -29
-7 -44 -15 -37 -19 -46 -8 -18 21 23 25 67 28 75 6z m32 -12 c0 -5 -4 -10 -10
-10 -5 0 -10 5 -10 10 0 6 5 10 10 10 6 0 10 -4 10 -10z m-650 -21 c0 -5 -10
-9 -21 -9 -18 0 -19 2 -9 15 12 15 30 12 30 -6z m173 6 c4 -8 1 -17 -6 -21 -7
-4 -9 -4 -5 1 4 4 3 14 -3 22 -7 8 -8 13 -1 13 5 0 12 -7 15 -15z m512 -66
c-6 -47 -16 -49 -13 -2 2 23 6 39 10 37 4 -3 5 -18 3 -35z m-505 22 c0 -6 -4
-13 -10 -16 -5 -3 -10 1 -10 9 0 9 5 16 10 16 6 0 10 -4 10 -9z m90 -11 c0
-13 -7 -20 -20 -20 -23 0 -26 10 -8 28 18 18 28 15 28 -8z m277 -50 c21 -26
16 -70 -9 -79 -28 -10 -47 -4 -74 23 -26 27 -24 64 7 87 22 17 25 17 44 1 11
-9 25 -24 32 -32z m-402 20 c3 -5 -1 -10 -9 -10 -9 0 -16 5 -16 10 0 6 4 10 9
10 6 0 13 -4 16 -10z m30 1 c3 -5 1 -12 -5 -16 -5 -3 -10 1 -10 9 0 18 6 21
15 7z m245 -71 c0 -5 -4 -10 -10 -10 -5 0 -10 5 -10 10 0 6 5 10 10 10 6 0 10
-4 10 -10z m-36 -16 c5 -14 4 -15 -9 -4 -17 14 -19 20 -6 20 5 0 12 -7 15 -16z
m-419 -14 c-3 -5 6 -20 20 -34 14 -14 25 -30 25 -36 0 -18 -48 -60 -69 -60
-20 0 -61 35 -61 52 0 5 -4 7 -9 4 -16 -11 -101 -17 -101 -8 0 9 70 27 98 25
14 -1 72 53 72 67 0 5 7 7 15 4 8 -4 13 -10 10 -14z m151 -37 c-10 -10 -19 5
-10 18 6 11 8 11 12 0 2 -7 1 -15 -2 -18z m44 11 c0 -8 -5 -12 -10 -9 -6 4 -8
11 -5 16 9 14 15 11 15 -7z m-79 -17 c-13 -13 -26 -3 -16 12 3 6 11 8 17 5 6
-4 6 -10 -1 -17z m-41 3 c0 -5 -4 -10 -10 -10 -5 0 -10 5 -10 10 0 6 5 10 10
10 6 0 10 -4 10 -10z m294 -41 c-5 -9 -34 -13 -34 -5 0 2 3 12 6 20 5 13 9 14
20 5 8 -6 11 -15 8 -20z m192 -23 c35 -31 40 -69 14 -94 -22 -20 -41 -20 -67
1 -7 5 -11 13 -8 17 3 5 1 12 -5 15 -8 5 -7 11 1 21 10 12 9 13 -5 8 -13 -5
-15 -2 -9 12 9 25 47 61 52 50 2 -5 14 -19 27 -30z m306 22 c-7 -7 -12 -8 -12
-2 0 6 3 14 7 17 3 4 9 5 12 2 2 -3 -1 -11 -7 -17z m-1102 -3 c0 -8 -4 -15
-10 -15 -5 0 -10 7 -10 15 0 8 5 15 10 15 6 0 10 -7 10 -15z m30 -6 c0 -6 -4
-7 -10 -4 -5 3 -10 11 -10 16 0 6 5 7 10 4 6 -3 10 -11 10 -16z m-110 -30 c-7
-11 -14 -18 -17 -15 -3 3 0 12 7 21 18 21 23 19 10 -6z m176 -32 c8 -4 14 -19
14 -33 0 -14 4 -22 10 -19 17 11 11 -11 -11 -39 -21 -27 -40 -29 -23 -3 5 7 1
4 -9 -6 -16 -18 -19 -18 -42 -3 -15 10 -25 26 -25 39 0 25 62 99 69 82 2 -5
10 -14 17 -18z m214 -8 c0 -6 7 -17 15 -26 8 -8 13 -19 10 -24 -4 -5 -2 -9 3
-9 13 0 23 -27 16 -45 -8 -21 -64 -34 -91 -22 -43 19 -40 55 9 111 24 27 38
33 38 15z m643 -31 c57 -40 68 -59 62 -103 -3 -22 -13 -47 -21 -56 -15 -17
-44 -21 -44 -7 0 5 -4 7 -9 4 -14 -9 -71 15 -71 29 0 7 -6 15 -12 17 -10 4
-10 11 0 33 12 26 12 27 -4 14 -16 -13 -16 -12 -3 11 7 14 13 30 14 35 0 6 10
14 23 20 12 5 22 13 22 17 0 13 10 9 43 -14z m110 -6 c-5 -23 -37 -30 -48 -12
-3 6 3 10 13 10 11 0 23 7 26 16 9 24 16 13 9 -14z m-1153 -22 c0 -5 -2 -10
-4 -10 -3 0 -8 5 -11 10 -3 6 -1 10 4 10 6 0 11 -4 11 -10z m885 -78 c47 -33
66 -85 47 -127 -7 -15 -17 -23 -22 -20 -6 4 -9 1 -8 -7 2 -7 -2 -12 -8 -11 -5
1 -15 -7 -22 -18 -13 -21 -3 -26 16 -7 9 9 12 9 12 0 0 -7 -8 -16 -17 -20 -14
-5 -12 -8 12 -13 l30 -7 -29 -1 c-28 -1 -29 -2 -10 -16 17 -13 17 -14 2 -15
-11 0 -15 -5 -12 -15 4 -8 2 -15 -4 -15 -6 0 -13 6 -15 13 -3 7 -6 5 -6 -5 -1
-26 -21 -22 -21 4 0 21 0 21 -16 2 -14 -18 -15 -18 -8 6 l7 24 -29 -18 -29
-17 28 25 28 26 -27 0 c-36 0 -26 9 14 12 29 2 30 4 16 19 -10 11 -13 26 -8
43 5 20 3 25 -7 21 -20 -7 -39 38 -26 60 7 13 6 16 -2 11 -6 -4 -11 -3 -11 1
0 9 72 93 80 93 3 -1 23 -13 45 -28z m-304 -16 c5 3 9 0 9 -7 0 -6 8 -9 20 -6
18 5 25 -4 21 -27 -1 -5 6 -17 15 -27 12 -13 14 -26 9 -46 -5 -15 -7 -33 -6
-39 0 -6 -6 -17 -15 -25 -20 -17 -58 -23 -48 -8 4 8 0 8 -15 0 -18 -10 -21 -9
-22 6 0 11 -3 13 -6 6 -8 -22 -43 -15 -43 8 0 11 -4 18 -9 14 -17 -10 -17 50
0 86 10 19 29 40 43 47 14 6 26 17 27 24 0 10 2 10 6 0 2 -6 9 -10 14 -6z
m586 -33 c-10 -32 -13 -34 -15 -15 -3 19 12 52 23 52 2 0 -2 -17 -8 -37z
m-1235 -65 c-2 -31 -2 -32 13 -14 19 25 19 5 1 -37 -19 -41 -54 -82 -63 -73
-4 4 -2 17 5 29 10 17 8 16 -10 -4 -18 -21 -28 -25 -45 -18 -49 18 -55 96 -10
136 39 36 57 42 86 27 21 -11 25 -20 23 -46z m1258 48 c0 -3 -4 -8 -10 -11 -5
-3 -10 -1 -10 4 0 6 5 11 10 11 6 0 10 -2 10 -4z m220 -20 c0 -3 -4 -8 -10
-11 -5 -3 -10 -1 -10 4 0 6 5 11 10 11 6 0 10 -2 10 -4z m-1000 -73 c0 -7 13
-19 30 -28 34 -17 65 -75 55 -104 -8 -26 -44 -71 -56 -71 -6 0 -1 15 11 33
l22 32 -31 -35 c-23 -27 -33 -32 -39 -22 -5 8 -13 13 -18 12 -21 -3 -43 9 -59
33 -23 36 -6 84 40 116 34 23 43 40 28 55 -4 3 -8 17 -9 29 -2 17 0 16 11 -8
8 -16 14 -36 15 -42z m-450 -37 c0 -2 -8 -10 -17 -17 -16 -13 -17 -12 -4 4 13
16 21 21 21 13z m845 -6 c3 -5 2 -10 -4 -10 -5 0 -13 5 -16 10 -3 6 -2 10 4
10 5 0 13 -4 16 -10z m391 -35 c2 -22 -6 -30 -28 -26 -5 0 -8 -3 -8 -8 0 -5
-11 -8 -25 -8 -14 0 -25 5 -25 13 0 8 6 11 15 8 8 -4 15 -1 15 5 0 6 6 8 14 5
8 -3 19 3 26 15 14 27 15 26 16 -4z m-1447 -39 c-13 -19 -25 -33 -28 -31 -2 3
7 20 20 39 13 19 25 33 28 31 2 -3 -7 -20 -20 -39z m862 -6 c6 0 7 -5 3 -11
-8 -14 -24 8 -23 31 1 11 3 10 6 -2 2 -10 9 -18 14 -18z m-553 2 c13 11 15 10
9 -4 -4 -11 -2 -18 6 -18 7 0 13 -9 13 -20 0 -13 -5 -19 -13 -16 -7 3 -13 1
-13 -3 0 -5 6 -11 13 -14 9 -3 9 -7 -2 -20 -7 -10 -12 -17 -10 -18 28 -6 97
-3 107 4 8 6 12 6 12 -1 0 -6 3 -17 6 -26 4 -12 0 -16 -16 -16 -11 0 -19 4
-16 9 3 4 -36 7 -87 4 -293 -13 -312 -13 -293 -2 18 11 64 15 186 18 30 1 40
4 31 10 -7 5 -11 13 -7 19 3 6 0 13 -6 15 -10 4 -10 7 0 15 7 5 10 16 6 27 -6
14 -4 16 6 10 10 -6 12 -3 8 13 -4 14 -2 19 7 16 7 -3 17 1 21 8 7 10 9 9 12
-5 3 -15 6 -16 20 -5z m1037 8 c8 -13 -33 -29 -91 -35 -34 -5 -43 -3 -38 8 3
8 17 13 35 12 16 -1 32 2 35 6 2 5 11 6 18 3 8 -3 17 -1 21 5 8 14 12 14 20 1z
m-1245 -10 c0 -5 -5 -10 -11 -10 -5 0 -7 5 -4 10 3 6 8 10 11 10 2 0 4 -4 4
-10z m1100 -31 c0 -5 -7 -9 -15 -9 -9 0 -12 6 -9 15 6 15 24 11 24 -6z m-50 1
c0 -5 -5 -10 -11 -10 -5 0 -7 5 -4 10 3 6 8 10 11 10 2 0 4 -4 4 -10z m-30
-10 c0 -5 -7 -10 -16 -10 -8 0 -12 5 -9 10 3 6 10 10 16 10 5 0 9 -4 9 -10z
m-83 -26 c-9 -9 -28 6 -21 18 4 6 10 6 17 -1 6 -6 8 -13 4 -17z m43 16 c0 -5
-7 -10 -15 -10 -8 0 -15 5 -15 10 0 6 7 10 15 10 8 0 15 -4 15 -10z m-126 -21
c-8 -13 -74 -11 -74 2 0 6 9 9 20 6 11 -3 22 -1 25 4 3 4 12 6 20 3 8 -4 12
-10 9 -15z m46 11 c0 -5 -4 -10 -10 -10 -5 0 -10 5 -10 10 0 6 5 10 10 10 6 0
10 -4 10 -10z m532 -15 c14 -18 16 -29 8 -47 l-11 -23 5 25 c4 16 -2 32 -16
47 -12 13 -17 23 -12 23 5 0 17 -11 26 -25z m-662 -5 c0 -10 -70 -19 -75 -9
-7 11 3 15 40 16 19 1 35 -3 35 -7z m-92 -12 c-2 -5 -8 -9 -13 -9 -5 0 -11 4
-13 9 -1 5 4 9 13 9 9 0 14 -4 13 -9z m252 -43 c0 -7 5 -15 12 -17 6 -2 13
-22 15 -45 2 -30 -2 -45 -18 -59 -23 -21 -59 -29 -59 -13 0 8 -4 8 -13 1 -18
-16 -78 23 -70 45 4 11 2 14 -5 9 -9 -5 -11 3 -8 31 4 28 14 46 42 69 l37 32
34 -20 c18 -11 33 -26 33 -33z m-435 17 c-8 -8 -25 10 -19 20 4 6 9 5 15 -3 4
-7 6 -15 4 -17z m42 2 c-9 -9 -28 6 -21 18 4 6 10 6 17 -1 6 -6 8 -13 4 -17z
m98 16 c-3 -5 -10 -10 -16 -10 -5 0 -9 5 -9 10 0 6 7 10 16 10 8 0 12 -4 9
-10z m-178 -16 c2 -7 -17 -10 -54 -8 -68 2 -66 2 -59 12 7 12 109 9 113 -4z
m133 12 c0 -11 -19 -15 -25 -6 -3 5 1 10 9 10 9 0 16 -2 16 -4z m650 -37 c0
-8 5 -8 15 1 12 10 15 10 15 -2 0 -8 -4 -19 -10 -26 -7 -9 -7 -9 2 -2 19 15
32 12 18 -5 -9 -10 -9 -15 -1 -15 6 0 11 -4 11 -10 0 -5 -6 -10 -14 -10 -22 0
-30 -19 -15 -36 6 -8 9 -18 5 -21 -4 -4 -11 -1 -16 7 -8 12 -10 11 -10 -5 0
-17 -2 -17 -10 -5 -9 13 -11 13 -20 0 -8 -12 -10 -11 -10 8 0 13 -4 20 -10 17
-6 -3 -7 1 -4 9 3 9 1 16 -5 16 -6 0 -11 5 -11 10 0 6 7 10 16 10 14 0 14 3 4
15 -9 10 -9 15 -1 15 6 0 11 7 11 15 0 9 6 12 17 8 11 -4 14 -3 9 5 -4 7 -2
12 3 12 6 0 11 -5 11 -11z m-1400 -59 c0 -5 -5 -10 -11 -10 -5 0 -7 5 -4 10 3
6 8 10 11 10 2 0 4 -4 4 -10z m120 -11 c0 -8 5 -8 15 1 18 15 19 7 4 -23 -9
-18 -9 -20 2 -9 18 17 25 15 25 -8 0 -13 -5 -19 -13 -16 -7 3 -13 -1 -13 -9 0
-8 5 -15 11 -15 8 0 8 -4 -1 -15 -6 -8 -9 -19 -5 -25 9 -15 -4 -12 -22 5 -16
17 -33 12 -33 -11 0 -8 -4 -14 -10 -14 -5 0 -7 7 -4 15 4 9 1 15 -8 15 -9 0
-13 13 -13 40 0 25 4 40 12 40 7 0 10 7 6 17 -5 12 -2 15 10 10 9 -3 17 -2 17
3 0 6 5 10 10 10 6 0 10 -5 10 -11z m1320 -19 c0 -5 -4 -10 -10 -10 -5 0 -10
5 -10 10 0 6 5 10 10 10 6 0 10 -4 10 -10z m-1475 -10 c3 -5 1 -10 -4 -10 -6
0 -11 5 -11 10 0 6 2 10 4 10 3 0 8 -4 11 -10z m25 -30 c0 -11 -7 -20 -15 -20
-18 0 -19 12 -3 28 16 16 18 15 18 -8z m-82 -27 c-12 -15 -22 -18 -14 -4 4 5
0 11 -6 14 -7 3 -3 4 9 4 17 -1 19 -4 11 -14z m1621 8 c10 -7 7 -9 -12 -8 -14
1 -23 5 -20 10 6 9 15 9 32 -2z m-239 -22 c0 -5 -9 -9 -20 -9 -22 0 -27 16 -7
23 15 5 27 -1 27 -14z m460 17 c0 -2 -6 -9 -14 -15 -11 -9 -16 -9 -22 0 -4 8
-3 9 4 5 7 -4 12 -2 12 3 0 6 5 11 10 11 6 0 10 -2 10 -4z m-295 -26 c3 -6 -1
-7 -9 -4 -18 7 -21 14 -7 14 6 0 13 -4 16 -10z m30 0 c3 -5 1 -10 -4 -10 -6 0
-11 5 -11 10 0 6 2 10 4 10 3 0 8 -4 11 -10z m45 2 c0 -5 -7 -9 -15 -9 -8 0
-12 4 -9 9 3 4 9 8 15 8 5 0 9 -4 9 -8z m-1410 -23 c0 -5 -4 -9 -10 -9 -5 0
-10 7 -10 16 0 8 5 12 10 9 6 -3 10 -10 10 -16z m253 6 c8 -18 -11 -31 -25
-17 -11 11 -3 32 12 32 4 0 10 -7 13 -15z m384 -57 c4 -18 9 -25 13 -18 4 7 9
0 12 -19 3 -20 0 -32 -10 -36 -8 -3 -12 -12 -9 -19 3 -8 -1 -20 -9 -26 -8 -7
-14 -9 -14 -5 0 4 -6 2 -14 -5 -21 -17 -111 23 -102 45 3 9 2 13 -4 10 -6 -4
-10 10 -10 34 0 34 6 44 41 75 l42 35 29 -20 c16 -12 31 -34 35 -51z m706 32
c32 -26 40 -50 28 -84 -11 -28 -38 -34 -72 -15 -14 7 -18 16 -13 31 4 13 2 18
-4 14 -16 -10 -11 36 6 57 19 22 24 21 55 -3z m137 -10 c0 -5 -7 -10 -16 -10
-8 0 -12 5 -9 10 3 6 10 10 16 10 5 0 9 -4 9 -10z m-1420 -27 c10 10 12 8 6
-8 -9 -23 -9 -23 -7 -53 0 -13 6 -20 11 -17 6 3 10 1 10 -5 0 -7 -7 -9 -16 -6
-12 5 -14 1 -9 -17 6 -22 6 -22 -11 -2 -16 20 -16 20 -11 -2 3 -13 2 -23 -3
-23 -9 0 -17 39 -12 63 2 9 8 15 13 11 5 -3 6 -10 3 -16 -4 -7 -2 -8 4 -4 17
10 15 23 -3 30 -10 3 -19 -1 -23 -12 -5 -14 -13 -17 -32 -11 -14 4 -19 7 -12
8 9 1 11 8 7 22 -6 18 -5 19 13 10 14 -8 23 -8 27 -1 4 6 1 9 -6 8 -7 -2 -15
6 -17 17 -4 17 -2 18 12 6 14 -12 16 -11 16 5 1 18 1 18 14 2 10 -14 15 -15
26 -5z m793 -20 c0 -4 11 -16 24 -27 33 -26 28 -75 -9 -96 -25 -13 -30 -13
-55 2 -41 24 -41 59 -1 101 32 34 39 37 41 20z m374 -5 c-3 -8 -6 -5 -6 6 -1
11 2 17 5 13 3 -3 4 -12 1 -19z m-1142 -8 c-3 -5 -12 -10 -18 -10 -7 0 -6 4 3
10 19 12 23 12 15 0z m-78 -66 c3 -8 0 -21 -7 -27 -10 -10 -11 -7 -5 13 7 22
6 23 -9 11 -15 -13 -24 -2 -9 12 11 12 23 8 30 -9z m346 -34 c41 -32 29 -109
-18 -116 -8 -1 -15 2 -15 7 0 5 -3 8 -7 8 -21 -3 -31 3 -42 27 -10 23 -8 30
14 60 30 40 34 40 68 14z m947 -16 c0 -16 -16 -19 -25 -4 -8 13 4 32 16 25 5
-4 9 -13 9 -21z m-624 -50 c13 -24 12 -30 -2 -51 -8 -14 -18 -22 -21 -19 -3 3
0 14 8 23 11 15 9 14 -9 -1 -13 -11 -31 -21 -40 -22 -24 -4 -52 25 -47 50 2
11 4 24 4 28 1 4 13 18 27 32 26 23 27 24 46 6 11 -10 26 -31 34 -46z m-482
48 c6 -11 -6 -26 -23 -30 -22 -5 -33 22 -13 30 24 9 30 9 36 0z m-364 -17 c0
-8 -7 -15 -15 -15 -9 0 -12 6 -9 15 4 8 10 15 15 15 5 0 9 -7 9 -15z m249 -27
c-10 -18 -9 -20 5 -15 8 3 18 1 22 -5 5 -7 2 -8 -6 -3 -8 5 -11 3 -8 -6 3 -8
12 -13 19 -11 11 3 12 1 2 -9 -7 -7 -13 -18 -13 -23 1 -6 12 3 25 19 14 17 25
25 25 19 0 -6 -7 -17 -15 -24 -9 -7 -13 -23 -10 -43 3 -21 2 -25 -3 -12 -4 11
-15 21 -24 23 -20 3 -63 -17 -54 -25 3 -3 12 0 20 6 11 10 19 10 33 1 14 -9
15 -10 1 -6 -9 2 -24 -2 -35 -9 -27 -21 -33 -18 -33 17 0 17 -7 39 -16 49 -15
17 -14 19 11 25 15 4 30 17 35 30 5 13 14 24 20 24 7 0 7 -7 -1 -22z m1442
-50 c35 -48 18 -128 -30 -141 -25 -6 -104 40 -95 56 4 7 14 20 22 30 9 10 11
17 4 17 -6 0 -15 -8 -21 -17 -5 -10 -13 -15 -16 -11 -4 4 3 21 15 37 14 21 17
29 7 25 -11 -4 -15 2 -13 20 0 16 6 24 13 21 7 -2 19 2 25 9 11 12 17 11 41
-3 16 -9 37 -28 48 -43z m-145 -5 c-5 -12 -10 -13 -18 -5 -8 8 -8 15 3 28 15
18 25 4 15 -23z m-289 -9 c-9 -9 -28 6 -21 18 4 6 10 6 17 -1 6 -6 8 -13 4
-17z m-1284 -7 c18 17 4 -38 -15 -63 l-22 -29 27 24 c15 14 27 20 27 14 0 -19
-42 -48 -64 -44 -45 7 -50 68 -9 101 24 19 29 20 39 6 6 -9 14 -13 17 -9z
m1361 -13 c4 -10 1 -14 -6 -12 -15 5 -23 28 -10 28 5 0 13 -7 16 -16z m-30
-21 c18 -36 5 -70 -29 -79 -30 -7 -59 2 -50 16 3 5 0 7 -8 4 -10 -3 -17 4 -21
22 -9 36 17 64 60 64 26 0 36 -6 48 -27z m626 -25 c0 -5 -6 -3 -14 4 -8 7 -13
18 -13 23 1 6 -4 9 -11 7 -8 -1 -11 2 -6 9 5 9 13 5 26 -10 10 -13 18 -27 18
-33z m-1826 26 c4 -9 2 -13 -5 -8 -7 4 -9 0 -6 -12 15 -50 19 -77 11 -72 -5 3
-17 -4 -27 -15 -19 -19 -18 -19 5 -12 22 7 23 7 3 -9 -29 -22 -35 -20 -35 14
0 19 -7 34 -20 42 -27 17 -25 26 7 30 19 2 32 12 41 31 15 31 18 33 26 11z
m1026 -9 c0 -8 -4 -15 -10 -15 -5 0 -10 7 -10 15 0 8 5 15 10 15 6 0 10 -7 10
-15z m40 5 c0 -5 -2 -10 -4 -10 -3 0 -8 5 -11 10 -3 6 -1 10 4 10 6 0 11 -4
11 -10z m-82 -11 c-2 -6 -8 -10 -13 -10 -5 0 -11 4 -13 10 -2 6 4 11 13 11 9
0 15 -5 13 -11z m-228 -33 c-13 -13 -35 7 -25 24 5 8 11 8 21 -1 10 -8 12 -15
4 -23z m131 21 c-1 -12 -15 -9 -19 4 -3 6 1 10 8 8 6 -3 11 -8 11 -12z m59 9
c0 -3 -4 -8 -10 -11 -5 -3 -10 -1 -10 4 0 6 5 11 10 11 6 0 10 -2 10 -4z
m-381 -21 c8 0 15 -9 17 -19 2 -11 6 -31 9 -44 6 -25 -11 -56 -25 -47 -5 3
-12 0 -16 -6 -4 -8 -3 -9 4 -5 7 4 12 2 12 -4 0 -8 -7 -9 -17 -5 -10 4 -23 8
-29 9 -38 6 -58 58 -32 84 9 9 8 12 -5 12 -9 0 -17 5 -17 11 0 6 9 9 20 6 10
-3 27 1 37 8 10 7 20 10 23 7 3 -4 11 -7 19 -7z m241 -5 c0 -5 -7 -7 -15 -4
-8 4 -12 10 -9 15 6 11 24 2 24 -11z m45 11 c3 -6 -4 -9 -15 -8 -11 1 -20 5
-20 9 0 11 28 10 35 -1z m-178 -15 c3 -3 -5 -6 -20 -6 -14 0 -32 -3 -41 -6
-10 -4 -16 -1 -16 9 0 11 9 15 35 13 20 -2 38 -6 42 -10z m43 4 c0 -5 -7 -10
-15 -10 -8 0 -15 5 -15 10 0 6 7 10 15 10 8 0 15 -4 15 -10z m1057 -60 c12
-17 16 -126 5 -115 -2 2 -15 -3 -29 -10 -16 -8 -33 -11 -42 -6 -9 5 -22 6 -30
3 -10 -3 -13 1 -9 16 4 15 2 19 -8 15 -9 -3 -14 3 -15 18 -2 22 -2 23 -6 3 -2
-12 -13 -30 -23 -39 -18 -16 -21 -16 -49 5 -34 23 -33 22 -35 64 -1 20 5 33
22 44 21 14 25 13 53 -7 17 -13 31 -21 33 -19 1 1 8 12 16 23 12 17 12 18 0 8
-19 -17 -35 -17 -21 0 6 8 9 16 6 19 -3 2 6 11 20 18 14 7 25 17 25 21 0 12
71 -38 87 -61z m-1721 35 c-9 -7 -17 -25 -17 -41 -2 -27 -2 -27 -8 6 -9 46 -4
59 21 52 19 -5 19 -6 4 -17z m124 4 c0 -5 -7 -9 -15 -9 -15 0 -20 12 -9 23 8
8 24 -1 24 -14z m150 6 c0 -6 -27 -11 -70 -12 -62 -1 -80 4 -66 18 10 10 136
5 136 -6z m118 1 c1 -5 -19 -10 -45 -11 -51 -2 -66 2 -59 14 7 11 100 8 104
-3z m-308 -6 c0 -5 -2 -10 -4 -10 -3 0 -8 5 -11 10 -3 6 -1 10 4 10 6 0 11 -4
11 -10z m-370 -19 c-11 -21 -30 -37 -30 -25 0 8 30 44 37 44 2 0 -1 -9 -7 -19z
m130 -31 c21 -11 21 -69 1 -94 -7 -8 -10 -19 -7 -24 3 -5 -1 -9 -9 -9 -8 0
-15 4 -15 8 0 5 -6 6 -13 3 -19 -7 -39 21 -39 53 0 18 9 35 28 50 34 27 30 26
54 13z m1458 -69 c19 -23 14 -66 -9 -87 -12 -10 -23 -18 -25 -17 -2 2 -18 10
-34 18 -32 17 -38 33 -17 54 10 10 8 11 -8 5 -18 -7 -18 -6 -6 9 7 9 10 17 5
17 -5 0 3 11 16 24 23 22 26 22 45 8 11 -9 26 -23 33 -31z m-1622 -22 c-3 -16
-1 -31 6 -35 7 -5 3 -11 -12 -16 -17 -6 -28 -4 -38 6 -12 12 -11 17 7 35 12
12 21 28 21 37 0 8 5 12 11 8 6 -3 9 -19 5 -35z m2096 19 c-6 -6 -15 -8 -19
-4 -4 4 -1 11 7 16 19 12 27 3 12 -12z m-1157 2 c-7 -12 18 -40 36 -40 10 0
10 -3 1 -12 -21 -21 -13 -32 10 -12 13 12 18 13 13 4 -5 -8 -8 -27 -6 -42 3
-31 -1 -33 -30 -17 -16 8 -26 7 -45 -6 -25 -16 -27 -15 -24 26 0 14 -6 31 -14
39 -22 17 -20 30 4 30 11 0 25 9 32 20 7 11 16 20 21 20 4 0 5 -5 2 -10z
m-293 -45 c11 -14 28 -25 39 -25 23 0 25 -13 3 -31 -11 -9 -14 -22 -10 -41 6
-29 -6 -36 -33 -19 -10 6 -25 4 -42 -5 -37 -18 -36 -19 -31 19 2 22 -2 38 -12
46 -23 19 -20 31 9 31 17 0 29 8 37 25 6 14 13 25 16 25 2 0 13 -11 24 -25z
m-646 -89 c0 -15 -5 -22 -13 -19 -14 5 -17 25 -6 36 12 13 19 7 19 -17z m1391
-36 c29 -30 34 -40 30 -73 -7 -57 -32 -79 -82 -73 -22 4 -42 11 -43 16 -2 6
-8 8 -13 4 -5 -3 -12 3 -16 13 -4 10 -11 21 -16 24 -8 6 -10 31 -6 72 1 9 4
15 6 13 2 -1 19 12 39 30 39 37 39 38 101 -26z m753 40 c5 -9 5 -22 0 -30 -6
-10 -4 -20 6 -31 14 -16 14 -21 -1 -53 -17 -36 -56 -59 -63 -37 -2 6 -9 11
-16 11 -6 0 -12 10 -13 21 -3 30 -11 35 -28 18 -19 -20 -23 -43 -6 -44 25 0
23 -24 -2 -30 -25 -7 -25 -7 -9 -36 10 -18 28 -32 45 -36 32 -6 35 -18 8 -32
-13 -7 -17 -18 -14 -35 3 -14 2 -34 -2 -43 -5 -10 -7 -25 -6 -32 2 -13 0 -13
-13 -2 -14 12 -16 11 -10 -3 4 -12 0 -16 -15 -16 -12 0 -21 5 -21 10 0 7 -7 7
-17 2 -16 -7 -73 -9 -80 -2 -3 2 -14 6 -29 9 -4 0 -1 8 6 15 8 11 18 12 36 6
14 -6 24 -6 24 0 0 4 -8 11 -17 14 -11 3 -8 4 7 3 19 -2 26 4 33 31 8 26 6 36
-8 52 -10 11 -13 20 -7 20 7 0 12 -4 12 -9 0 -4 11 -6 25 -3 14 2 25 11 25 19
0 8 5 11 10 8 14 -9 12 7 -4 27 -15 20 -52 17 -108 -11 -28 -14 -38 -15 -42
-6 -6 15 108 60 126 49 7 -4 8 -3 4 4 -4 7 -1 12 8 12 9 0 16 4 16 9 0 12 -49
20 -56 10 -3 -5 1 -9 8 -9 12 -1 -29 -29 -43 -30 -3 0 -4 13 -1 28 2 18 -2 33
-12 41 -23 19 -20 29 13 36 20 4 33 15 39 33 l9 27 13 -27 c16 -33 70 -45 78
-16 2 10 8 18 13 18 5 0 9 14 9 30 0 28 3 30 31 28 17 -1 34 -10 39 -18z
m-1954 -25 c-3 -8 -1 -15 5 -15 14 0 28 -42 22 -72 -3 -17 -15 -31 -35 -39
-28 -11 -33 -11 -49 10 -26 32 -24 63 9 99 29 32 58 43 48 17z m204 3 c0 -7 9
-24 20 -38 26 -33 25 -45 -7 -74 -22 -20 -30 -23 -52 -15 -50 19 -56 69 -13
110 29 29 52 36 52 17z m1378 -104 c-2 -15 -15 -33 -33 -44 l-30 -19 -34 28
c-33 27 -33 27 -17 59 9 18 20 32 25 32 5 0 11 10 15 22 5 22 7 21 41 -15 25
-27 35 -46 33 -63z m-1242 26 c-3 -20 0 -30 9 -30 7 0 20 -11 29 -25 16 -25
16 -28 -5 -61 -26 -43 -61 -43 -92 -2 -18 23 -19 31 -8 54 6 14 20 28 31 31
11 3 22 17 25 34 9 38 18 37 11 -1z m563 -20 c27 0 33 -12 15 -31 -10 -12 -15
-29 -12 -49 4 -27 2 -30 -16 -23 -25 8 -43 7 -72 -2 -18 -6 -20 -3 -17 22 3
19 -1 34 -11 42 -22 19 -20 28 9 35 14 4 31 18 37 32 l12 26 19 -26 c10 -14
27 -26 36 -26z m518 -2 c43 -39 37 -96 -13 -143 -15 -14 -24 -28 -20 -32 4 -4
16 3 26 17 l19 25 36 -38 c30 -32 35 -44 30 -65 -10 -41 -25 -53 -62 -50 -40
3 -55 23 -55 74 0 34 -11 44 -23 23 -4 -6 -14 -8 -22 -5 -9 4 -21 2 -28 -4
-10 -8 -15 -8 -20 0 -9 14 1 24 23 25 53 4 62 6 62 13 0 5 -6 9 -12 10 -49 4
-58 8 -58 25 0 13 -5 17 -16 13 -12 -5 -14 -1 -9 15 5 14 2 25 -6 30 -11 6
-11 11 -2 20 6 6 9 17 7 24 -3 7 12 27 32 44 37 29 39 30 64 14 14 -8 35 -24
47 -35z m-681 -58 c29 0 31 -11 6 -33 -13 -12 -17 -26 -14 -47 4 -30 4 -30
-23 -18 -20 9 -34 9 -57 0 -30 -11 -30 -11 -26 18 3 21 -1 35 -14 47 -25 22
-23 33 7 33 15 0 31 10 42 26 l17 26 19 -26 c11 -16 28 -26 43 -26z m1354 19
c0 -5 -11 -9 -25 -9 -28 0 -34 16 -7 23 20 4 32 -1 32 -14z m-2250 -8 c0 -5 8
-11 18 -13 21 -6 28 -58 12 -91 -10 -20 -10 -20 3 -4 17 21 27 22 27 3 0 -18
-79 -105 -80 -88 0 7 -4 11 -9 7 -5 -3 -21 0 -34 6 -21 9 -27 21 -32 62 -7 49
-6 52 26 79 19 16 39 33 44 38 13 12 25 12 25 1z m-136 -46 c-4 -8 -11 -15
-16 -15 -6 0 -5 6 2 15 7 8 14 15 16 15 2 0 1 -7 -2 -15z m1934 -17 c-2 -6
-11 -12 -19 -14 -7 -1 -26 -4 -41 -7 -42 -8 -34 8 10 20 51 14 54 15 50 1z
m-98 -28 c0 -5 -2 -10 -4 -10 -3 0 -8 5 -11 10 -3 6 -1 10 4 10 6 0 11 -4 11
-10z m-1093 -9 c10 9 13 6 13 -12 0 -22 0 -22 15 -3 11 15 14 16 15 4 0 -9 -6
-22 -12 -29 -11 -11 -9 -11 10 -2 26 14 31 -3 5 -18 -16 -9 -15 -10 5 -11 13
0 21 -4 17 -10 -3 -5 -12 -7 -19 -4 -8 3 -17 1 -20 -4 -3 -5 2 -9 11 -8 9 0
18 -5 20 -12 3 -8 -1 -10 -11 -6 -12 5 -15 2 -10 -10 3 -9 2 -16 -4 -16 -6 0
-13 6 -15 13 -3 6 -6 3 -7 -8 -1 -19 -1 -19 -11 -2 -6 9 -15 14 -21 11 -7 -5
-9 0 -6 14 5 16 2 19 -11 14 -14 -5 -14 -4 -2 11 12 15 11 17 -3 17 -9 0 -16
5 -16 11 0 6 7 8 18 4 14 -5 15 -4 5 6 -19 19 -16 34 4 18 15 -13 15 -12 5 8
-15 28 -15 40 0 25 8 -8 15 -9 25 -1z m1063 -1 c0 -5 -5 -10 -11 -10 -5 0 -7
5 -4 10 3 6 8 10 11 10 2 0 4 -4 4 -10z m414 -8 c2 -4 -5 -9 -17 -9 -17 -2
-19 0 -7 7 18 12 18 12 24 2z m-687 -26 c32 5 38 -14 11 -36 -22 -18 -22 -19
-3 -20 14 0 16 -3 7 -8 -8 -5 -10 -16 -5 -28 6 -16 4 -17 -9 -6 -13 10 -15 9
-10 -14 4 -20 2 -25 -8 -19 -7 4 -16 2 -21 -6 -7 -11 -9 -10 -9 5 0 20 0 20
-16 0 -15 -19 -15 -19 -11 3 4 16 1 20 -11 16 -11 -5 -13 -3 -7 6 4 8 2 17 -6
22 -12 8 -12 10 0 18 17 11 5 32 -14 24 -9 -3 -15 1 -15 11 0 18 15 22 25 6
10 -16 25 -12 25 6 0 10 6 14 15 10 9 -3 15 1 15 11 0 11 4 13 13 5 6 -5 22
-8 34 -6z m-424 -49 c-3 -6 -1 -7 5 -3 6 3 13 -6 17 -25 10 -44 -25 -81 -66
-69 -22 7 -31 5 -39 -8 -7 -13 -10 -7 -11 28 -1 25 -1 49 0 54 1 5 -4 13 -11
18 -10 8 -10 9 1 6 8 -3 26 8 40 22 l24 27 23 -20 c13 -11 21 -25 17 -30z
m-913 30 c0 -2 -12 -14 -27 -28 -24 -22 -23 -11 2 18 9 11 25 17 25 10z m-240
-27 c5 -8 7 -17 4 -22 -2 -4 4 -12 15 -18 17 -9 19 -8 15 5 -3 8 -11 12 -17 8
-6 -4 -7 -1 -2 6 11 19 38 -11 29 -32 -10 -28 -62 -17 -100 21 -38 38 -41 44
-19 36 8 -4 15 -2 15 3 0 15 50 9 60 -7z m1338 -5 c-3 -3 -9 2 -12 12 -6 14
-5 15 5 6 7 -7 10 -15 7 -18z m45 19 c11 -11 -3 -24 -18 -18 -8 4 -12 10 -9
15 6 11 18 12 27 3z m47 -3 c0 -17 -18 -21 -24 -6 -3 9 0 15 9 15 8 0 15 -4
15 -9z m-1019 -42 c16 -16 29 -25 29 -19 0 17 -5 25 -12 23 -10 -4 -10 11 -2
20 13 13 35 -22 26 -40 -5 -10 -12 -34 -16 -53 -6 -32 -5 -33 8 -15 28 36 18
-9 -10 -51 l-26 -39 26 24 c14 14 26 20 26 14 0 -5 -11 -20 -25 -33 -23 -21
-27 -22 -69 -10 -53 15 -73 34 -77 75 -4 46 9 72 47 95 36 23 45 33 19 24 -8
-4 -15 -1 -15 6 0 6 -5 8 -12 4 -6 -4 -8 -3 -4 4 11 18 55 3 87 -29z m789 26
c0 -8 -4 -15 -10 -15 -5 0 -10 7 -10 15 0 8 5 15 10 15 6 0 10 -7 10 -15z m50
4 c0 -5 -4 -7 -10 -4 -5 3 -10 1 -10 -6 0 -7 -3 -10 -6 -6 -8 7 4 27 17 27 5
0 9 -5 9 -11z m45 1 c3 -5 -1 -10 -9 -10 -9 0 -16 5 -16 10 0 6 4 10 9 10 6 0
13 -4 16 -10z m-270 -18 c-3 -3 -11 0 -18 7 -9 10 -8 11 6 5 10 -3 15 -9 12
-12z m-479 -1 c9 8 14 8 14 1 0 -16 -19 -25 -36 -18 -9 3 -12 11 -8 18 6 9 9
9 12 0 3 -10 7 -10 18 -1z m89 -11 c-3 -5 0 -10 8 -10 28 0 49 -37 45 -79 -3
-31 -1 -37 9 -29 21 17 15 -6 -8 -36 -11 -14 -17 -26 -14 -26 4 0 2 -7 -5 -15
-14 -17 -79 -11 -92 9 -6 8 -8 8 -8 -1 0 -29 14 -43 42 -43 l29 0 -19 -28
c-14 -19 -18 -37 -15 -56 5 -24 3 -28 -11 -23 -9 4 -23 10 -33 14 -11 4 -14 3
-9 -5 4 -8 2 -10 -7 -6 -8 3 -18 1 -22 -5 -3 -6 -12 -11 -20 -11 -11 0 -11 6
-2 29 9 25 8 33 -7 50 -18 20 -18 21 6 30 37 14 54 61 34 98 -24 48 -4 96 59
134 33 21 50 24 40 9z m1598 -5 c-3 -9 -8 -14 -10 -11 -3 3 -2 9 2 15 9 16 15
13 8 -4z m-1186 -29 c0 -8 -6 -12 -13 -9 -7 2 -18 -4 -25 -15 -7 -11 -19 -17
-30 -15 -23 6 -13 33 11 28 10 -2 24 3 31 11 15 18 26 18 26 0z m978 -39 c6
-5 3 -7 -7 -3 -10 3 -24 -1 -32 -10 -9 -9 -17 -10 -21 -4 -3 5 -1 10 5 10 6 0
8 5 5 10 -4 6 -4 18 -1 26 5 13 8 13 23 -3 10 -10 22 -22 28 -26z m225 12 c0
-5 -9 -9 -19 -9 -14 0 -18 5 -14 20 4 16 8 18 19 9 8 -6 14 -15 14 -20z m-824
-14 c38 -29 59 -83 49 -131 -5 -30 -2 -38 19 -55 13 -10 28 -33 31 -50 6 -25
2 -36 -17 -55 -19 -20 -30 -23 -56 -18 -23 5 -31 11 -28 21 3 8 -1 24 -9 36
-13 20 -13 26 0 51 15 28 15 28 -13 24 -28 -4 -57 14 -44 27 4 4 -5 4 -21 0
-25 -7 -27 -5 -27 25 0 18 -4 29 -10 25 -19 -12 -10 14 17 47 24 29 24 30 4
13 l-24 -20 12 23 c10 19 65 62 80 62 2 0 19 -11 37 -25z m-376 -1 c0 -9 -5
-14 -12 -12 -18 6 -21 28 -4 28 9 0 16 -7 16 -16z m1250 -19 c6 -8 10 -19 8
-24 -1 -5 -11 2 -21 15 -19 26 -8 34 13 9z m-1393 -13 c0 -10 -6 -19 -13 -19
-9 0 -9 5 -1 19 7 10 13 18 14 18 1 0 1 -8 0 -18z m994 -11 c38 -23 69 -68 69
-99 0 -34 -19 -65 -36 -58 -12 4 -12 2 -4 -15 6 -11 15 -17 21 -14 10 7 13
-18 3 -28 -4 -3 -22 0 -42 9 -19 8 -44 12 -55 8 -13 -4 -17 -2 -13 5 4 6 0 11
-8 11 -9 0 -16 7 -16 15 0 9 -6 12 -15 9 -22 -9 -19 22 7 59 l22 32 -27 -24
c-35 -32 -35 -12 0 31 15 18 20 27 10 19 -9 -7 -17 -9 -17 -4 0 11 37 43 50
43 6 0 10 5 10 10 0 14 5 13 41 -9z m199 -86 c0 -13 -10 -33 -22 -45 -62 -58
-132 25 -78 93 11 14 20 33 20 42 0 12 12 5 40 -24 25 -25 40 -50 40 -66z
m-1037 77 c4 10 7 10 15 -1 5 -7 15 -10 22 -6 9 5 10 2 5 -14 -4 -13 -2 -21 5
-21 7 0 10 -6 7 -14 -3 -8 -1 -17 6 -20 9 -3 8 -7 -3 -15 -12 -8 -12 -13 4
-30 11 -12 14 -21 8 -21 -7 0 -12 5 -12 10 0 6 -4 10 -10 10 -5 0 -7 -7 -4
-15 4 -8 1 -15 -5 -15 -6 0 -11 6 -11 13 0 8 -4 7 -10 -3 -8 -13 -11 -13 -19
-1 -5 7 -14 10 -20 7 -14 -9 -14 0 -1 24 8 16 8 18 -5 14 -8 -4 -15 -2 -15 4
0 6 6 13 13 15 7 3 5 6 -5 6 -10 1 -18 6 -18 12 0 6 7 8 18 4 14 -5 15 -4 5 6
-16 16 -17 33 -2 23 8 -4 9 1 4 17 -7 21 -6 22 8 11 12 -10 16 -10 20 0z
m-293 -118 c0 -2 -7 -4 -15 -4 -8 0 -15 4 -15 10 0 5 7 7 15 4 8 -4 15 -8 15
-10z m970 -10 c0 -8 -4 -12 -10 -9 -5 3 -10 1 -10 -6 0 -6 8 -9 20 -6 13 3 20
0 20 -10 0 -8 -4 -11 -10 -8 -5 3 -10 1 -10 -4 0 -6 10 -11 21 -11 16 0 20 -5
16 -20 -4 -16 0 -20 19 -20 13 0 24 -4 24 -9 0 -6 -12 -6 -29 -1 -36 10 -42 5
-34 -31 6 -32 2 -34 -28 -19 -14 8 -25 7 -41 -5 -31 -21 -35 -19 -30 15 3 19
-2 37 -11 48 -13 14 -13 20 -3 35 7 9 22 17 32 18 16 0 15 2 -4 10 -13 5 -20
14 -17 19 5 8 11 7 21 -1 12 -10 18 -8 30 9 18 26 34 29 34 6z m-440 -40 c0
-14 -21 -19 -33 -7 -9 9 13 34 24 27 5 -3 9 -12 9 -20z m800 -18 c0 -3 -4 -8
-10 -11 -5 -3 -10 -1 -10 4 0 6 5 11 10 11 6 0 10 -2 10 -4z m-194 -35 c-9
-14 15 -19 47 -10 15 4 25 4 22 -1 -3 -5 2 -15 10 -23 8 -9 15 -24 15 -35 0
-16 -5 -19 -22 -14 -14 3 -19 2 -14 -6 4 -7 16 -12 27 -12 10 0 19 -4 19 -10
0 -5 8 -10 18 -10 15 1 15 2 2 13 -21 17 -25 41 -6 34 8 -3 16 -1 18 5 6 17
28 -1 28 -23 0 -10 -9 -24 -19 -31 -14 -9 -17 -17 -11 -33 7 -19 5 -22 -15
-19 -33 3 -45 12 -39 29 4 10 -3 18 -21 25 -41 16 -47 13 -40 -20 7 -34 5 -35
-34 -16 -17 9 -32 11 -42 5 -27 -17 -39 -10 -33 20 5 21 1 34 -14 49 -23 23
-19 32 14 32 13 0 28 9 34 21 6 11 21 24 33 29 29 11 29 12 23 1z m198 -6 c11
-8 16 -18 13 -22 -4 -3 -16 3 -27 15 -23 25 -15 29 14 7z m-1330 -16 c-3 -6
-2 -14 3 -18 5 -3 18 -20 30 -36 17 -24 19 -35 11 -50 -17 -33 -39 -46 -55
-34 -10 9 -13 8 -13 -5 0 -9 -4 -16 -10 -16 -5 0 -10 5 -10 11 0 5 -5 7 -12 3
-7 -4 -8 -3 -4 5 4 6 0 18 -8 27 -24 23 -19 60 9 82 14 11 25 25 25 31 0 6 9
11 21 11 12 0 18 -4 13 -11z m286 -19 c0 -5 -9 -14 -20 -20 -24 -13 -26 -7 -4
14 18 18 24 20 24 6z m64 -1 c-3 -5 -1 -16 5 -23 9 -11 8 -14 -6 -12 -11 0
-17 -5 -15 -13 3 -12 0 -12 -12 -1 -13 10 -16 10 -16 -4 0 -17 -25 -22 -35 -7
-3 5 -17 8 -31 5 -20 -4 -27 0 -31 16 -3 11 -10 17 -16 13 -6 -3 -7 -1 -3 5
10 16 26 15 47 -4 14 -13 22 -13 39 -4 18 10 21 9 15 -2 -3 -7 0 -5 9 6 9 11
20 15 28 10 10 -6 11 -5 1 7 -10 12 -8 15 8 16 11 1 17 -3 13 -8z m1020 -14
c4 -10 -1 -15 -14 -15 -13 0 -18 5 -14 15 4 8 10 15 14 15 4 0 10 -7 14 -15z
m-1187 -60 c4 -4 2 -5 -4 -1 -9 5 -13 0 -13 -13 0 -14 -5 -19 -15 -15 -10 4
-15 0 -15 -12 0 -16 -2 -17 -10 -4 -12 19 -13 33 -1 26 5 -3 11 3 14 13 5 19
29 23 44 6z m-636 -48 c-8 -8 -11 -7 -11 4 0 20 13 34 18 19 3 -7 -1 -17 -7
-23z m67 -2 c-13 -14 -29 -25 -37 -25 -9 0 -7 6 7 19 12 10 20 20 17 22 -2 3
5 5 16 6 19 2 19 1 -3 -22z m1705 8 c-7 -2 -19 -2 -25 0 -7 3 -2 5 12 5 14 0
19 -2 13 -5z m-1891 -23 c12 -11 28 -20 35 -20 7 0 13 -9 13 -19 0 -16 -7 -20
-39 -19 -25 0 -42 6 -45 15 -3 8 -10 12 -15 9 -5 -3 -20 -2 -33 3 l-23 9 27 7
c15 4 32 13 39 21 15 18 16 18 41 -6z m85 -2 c-3 -8 -6 -5 -6 6 -1 11 2 17 5
13 3 -3 4 -12 1 -19z m143 18 c0 -2 -7 -7 -16 -10 -8 -3 -12 -2 -9 4 6 10 25
14 25 6z m259 -12 c35 -17 33 -34 -5 -34 -14 0 -27 7 -31 18 -4 9 -11 20 -17
24 -21 15 21 8 53 -8z m1297 -6 c16 -19 16 -20 1 -9 -15 12 -17 11 -14 -10 4
-22 48 -45 61 -31 3 3 6 0 6 -7 0 -6 -7 -14 -15 -17 -8 -4 -15 -12 -15 -20 0
-22 -48 -17 -60 6 -11 20 -50 28 -50 10 0 -5 5 -10 12 -10 6 0 9 -3 6 -6 -4
-3 -17 2 -31 11 -21 14 -25 14 -30 1 -4 -10 -1 -13 9 -9 8 3 14 -1 14 -11 0
-9 -6 -16 -14 -16 -16 0 -29 27 -20 41 3 5 0 9 -5 9 -17 0 -13 27 4 34 8 3 15
1 15 -5 0 -5 15 0 33 13 17 13 41 28 52 35 11 6 20 12 21 12 0 1 9 -9 20 -21z
m-1554 -15 c-7 -3 -19 -11 -26 -19 -12 -11 -15 -10 -19 5 -3 14 0 17 13 14 10
-3 21 0 25 7 4 6 10 8 14 4 3 -4 0 -9 -7 -11z m175 0 c3 -7 -4 -9 -16 -6 -12
3 -18 9 -15 15 7 11 26 6 31 -9z m193 2 c8 -9 9 -15 2 -15 -6 0 -14 5 -17 10
-4 6 -11 7 -17 4 -7 -4 -8 -2 -4 4 10 16 21 15 36 -3z m845 5 c-3 -5 -11 -10
-16 -10 -6 0 -7 5 -4 10 3 6 11 10 16 10 6 0 7 -4 4 -10z m60 -21 c-42 -7 -50
-6 -42 8 3 5 23 7 44 4 l38 -5 -40 -7z m120 1 c-3 -5 -11 -10 -16 -10 -6 0 -7
5 -4 10 3 6 11 10 16 10 6 0 7 -4 4 -10z m258 3 c-7 -2 -21 -2 -30 0 -10 3 -4
5 12 5 17 0 24 -2 18 -5z m-1723 -13 c0 -5 -13 -10 -30 -10 -16 0 -30 4 -30 8
0 4 14 9 30 10 17 1 30 -2 30 -8z m864 -5 c3 -8 12 -12 21 -9 10 4 15 0 15
-10 0 -11 -9 -16 -30 -16 -25 0 -30 4 -30 25 0 27 15 34 24 10z m76 -1 c0 -14
-3 -14 -15 -4 -8 7 -15 14 -15 16 0 2 7 4 15 4 8 0 15 -7 15 -16z m334 -2 c3
-5 -1 -9 -9 -9 -8 0 -15 4 -15 9 0 4 4 8 9 8 6 0 12 -4 15 -8z m-924 -22 c0
-16 -7 -20 -35 -20 -28 0 -35 4 -35 20 0 16 7 20 35 20 28 0 35 -4 35 -20z
m1007 -6 c0 -21 -59 -14 -62 6 -2 12 5 15 30 12 19 -2 32 -9 32 -18z m-1498
-97 c-1 -48 -5 -90 -9 -92 -4 -3 -4 -23 0 -45 6 -33 5 -40 -6 -36 -8 3 -14 1
-14 -4 0 -6 -7 -10 -15 -10 -8 0 -15 7 -15 16 0 8 5 12 10 9 6 -3 10 1 10 9 0
9 6 16 13 16 7 1 5 6 -5 14 -10 7 -15 16 -11 19 3 4 0 9 -8 12 -10 4 -13 20
-11 61 l4 56 -31 -16 c-17 -9 -31 -14 -31 -12 0 3 14 12 30 21 21 11 30 23 30
40 0 15 6 25 14 25 8 0 17 8 20 17 14 37 26 -12 25 -100z m941 103 c0 -5 -2
-10 -4 -10 -3 0 -8 5 -11 10 -3 6 -1 10 4 10 6 0 11 -4 11 -10z m195 -1 c11
-17 2 -18 -19 -3 -17 12 -17 14 -4 14 9 0 20 -5 23 -11z m279 -14 c16 -12 17
-15 4 -15 -8 0 -21 7 -28 15 -16 19 -1 19 24 0z m-1553 -12 c13 -16 12 -17 -3
-4 -14 11 -18 11 -18 1 0 -8 -3 -11 -6 -7 -5 5 3 27 10 27 2 0 10 -8 17 -17z
m1182 -23 c4 -17 0 -20 -33 -20 -33 0 -37 3 -33 20 4 14 14 20 33 20 19 0 29
-6 33 -20z m347 10 c8 -3 32 -6 68 -8 51 -3 34 -27 -20 -29 -40 -2 -47 1 -53
20 -4 13 -8 17 -12 10 -5 -15 -63 -18 -63 -4 0 16 53 23 80 11z m-1271 -23 c0
-9 -2 -8 -6 1 -2 6 -10 9 -15 6 -7 -4 -8 -2 -4 5 9 13 26 5 25 -12z m1506 7
c15 -10 38 -15 58 -12 32 3 33 2 34 -32 0 -19 -1 -25 -4 -14 -4 23 -50 34
-134 34 -27 0 -39 4 -39 14 0 28 49 34 85 10z m-1720 -13 c-3 -6 -11 -11 -16
-11 -5 0 -4 6 3 14 14 16 24 13 13 -3z m1862 -3 c-3 -8 -6 -5 -6 6 -1 11 2 17
5 13 3 -3 4 -12 1 -19z m-1964 5 c-7 -2 -21 -2 -30 0 -10 3 -4 5 12 5 17 0 24
-2 18 -5z m233 -39 c0 -14 -5 -20 -14 -17 -11 5 -11 7 0 14 10 7 10 9 1 9 -7
0 -13 4 -13 8 0 5 6 9 13 9 7 0 13 -10 13 -23z m1394 -4 c0 -5 8 -10 18 -10
17 0 18 -8 14 -82 -2 -46 -8 -87 -13 -92 -5 -6 -9 0 -10 15 l0 24 -9 -22 c-19
-48 -30 -22 -30 70 0 52 3 97 7 100 10 10 23 8 23 -3z m231 -43 c-8 -8 -11 -5
-11 9 0 27 14 41 18 19 2 -9 -1 -22 -7 -28z m84 13 c-2 -31 -15 -37 -15 -7 0
15 4 27 8 27 5 0 8 -9 7 -20z m-127 -15 c-3 -3 -9 2 -12 12 -6 14 -5 15 5 6 7
-7 10 -15 7 -18z m-1828 -19 c0 -49 -15 -52 -17 -5 -2 21 2 39 7 39 6 0 10
-15 10 -34z m1906 -1 c1 -8 -2 -15 -7 -15 -6 0 -7 -5 -3 -12 4 -6 3 -8 -4 -5
-5 4 -9 15 -7 25 2 9 4 21 4 26 1 13 15 -2 17 -19z m-56 -40 c0 -8 -2 -15 -4
-15 -2 0 -6 7 -10 15 -3 8 -1 15 4 15 6 0 10 -7 10 -15z m-1907 -30 c-3 -9 -8
-14 -10 -11 -3 3 -2 9 2 15 9 16 15 13 8 -4z m1987 -11 c0 -14 -4 -23 -10 -19
-5 3 -10 15 -10 26 0 10 5 19 10 19 6 0 10 -12 10 -26z m-1930 1 c0 -8 -4 -15
-10 -15 -5 0 -7 7 -4 15 4 8 8 15 10 15 2 0 4 -7 4 -15z m140 11 c0 -20 -16
-36 -36 -36 -23 0 -32 18 -17 33 7 8 53 10 53 3z m105 -16 c-10 -11 -20 -18
-23 -16 -5 6 21 35 32 36 5 0 1 -9 -9 -20z m1631 -5 c-1 -13 -4 -27 -7 -30 -5
-4 -4 41 0 53 4 10 8 -2 7 -23z m194 4 l25 -21 -27 5 c-16 2 -28 0 -28 -4 0
-5 -15 -9 -32 -9 l-33 1 30 24 c36 30 34 30 65 4z m88 -1 c-7 -20 -58 -23 -58
-4 0 11 10 16 31 16 20 0 29 -4 27 -12z m-2158 -28 c0 -5 -10 -10 -22 -9 -22
0 -22 1 -3 9 11 5 21 9 23 9 1 1 2 -3 2 -9z m60 0 c0 -5 -4 -10 -10 -10 -5 0
-10 5 -10 10 0 6 5 10 10 10 6 0 10 -4 10 -10z m225 0 c-3 -5 -14 -10 -23 -10
-15 0 -15 2 -2 10 20 13 33 13 25 0z m-171 -6 c19 -7 9 -34 -13 -34 -23 0 -31
9 -24 26 6 15 13 17 37 8z m1797 -17 c-10 -9 -11 -8 -5 6 3 10 9 15 12 12 3
-3 0 -11 -7 -18z m-1691 3 c0 -5 -4 -10 -9 -10 -5 0 -16 -3 -25 -6 -11 -4 -16
-1 -16 10 0 10 9 16 25 16 14 0 25 -4 25 -10z m1591 -13 c-10 -9 -11 -8 -5 6
3 10 9 15 12 12 3 -3 0 -11 -7 -18z m-1861 -21 c0 -2 -7 -6 -15 -10 -8 -3 -15
-1 -15 4 0 6 7 10 15 10 8 0 15 -2 15 -4z m1720 -1 c0 -15 -14 -34 -22 -29 -7
4 -7 0 0 -12 5 -11 6 -27 3 -38 -6 -15 -10 -11 -26 23 -10 23 -22 41 -27 41
-4 0 -8 4 -8 8 0 4 18 8 40 9 22 1 40 0 40 -2z m50 -26 c0 -11 4 -17 10 -14 6
4 7 -2 1 -17 -6 -16 -18 -24 -40 -26 -17 -2 -31 0 -31 5 0 14 14 29 32 36 11
4 15 12 12 22 -3 8 -1 15 5 15 6 0 11 -9 11 -21z m-1748 -3 c7 4 8 2 4 -4 -4
-7 -3 -12 3 -12 6 0 7 -8 4 -17 -4 -11 -8 -13 -11 -5 -2 7 -9 9 -14 6 -7 -4
-8 -2 -4 4 4 7 3 12 -3 12 -6 0 -7 8 -4 17 4 11 8 13 11 5 2 -7 9 -9 14 -6z
m1598 -10 c0 -7 10 -16 22 -20 17 -4 20 -8 11 -17 -8 -8 -18 -6 -37 6 -27 18
-31 27 -19 38 11 12 23 8 23 -7z m-1395 -24 c7 -18 -2 -32 -21 -32 -8 0 -12 5
-9 10 3 6 0 10 -7 11 -10 0 -10 2 0 6 6 2 10 8 8 12 -3 4 1 8 9 8 8 0 17 -7
20 -15z m1700 -1 c3 -5 2 -12 -3 -15 -5 -3 -9 1 -9 9 0 17 3 19 12 6z m-1939
-26 c-3 -19 -16 -32 -16 -16 0 7 -4 10 -8 7 -5 -3 -9 1 -9 8 0 8 7 12 15 8 11
-4 13 -1 7 8 -5 8 -4 11 3 7 5 -4 9 -14 8 -22z m189 -33 c-2 -9 -4 -19 -4 -21
-1 -3 -7 4 -15 15 -10 13 -11 21 -3 26 16 10 26 1 22 -20z m94 2 c4 3 7 -4 8
-14 1 -12 -4 -17 -15 -16 -9 2 -17 9 -18 17 -1 20 9 35 14 21 2 -7 7 -10 11
-8z m-245 -26 c-3 -4 0 -8 7 -8 16 0 3 -13 -16 -16 -9 -1 -11 4 -8 14 5 11 3
13 -7 7 -8 -5 -11 -4 -7 2 3 5 13 10 21 10 8 0 13 -4 10 -9z m192 -31 c0 -13
-6 -24 -13 -24 -7 0 -10 4 -7 8 2 4 -2 10 -8 12 -8 3 -6 6 5 6 9 1 17 6 17 11
0 6 2 10 4 10 2 0 3 -10 2 -23z"/>
<path d="M2842 3960 c7 -11 18 -20 25 -20 8 0 10 -7 6 -17 -6 -16 -5 -16 11
-4 16 14 16 16 -8 28 -14 8 -26 18 -26 23 0 6 -5 10 -10 10 -6 0 -5 -8 2 -20z"/>
<path d="M2816 3165 c4 -8 8 -15 10 -15 2 0 4 7 4 15 0 8 -4 15 -10 15 -5 0
-7 -7 -4 -15z"/>
<path d="M2850 3170 c0 -5 5 -10 11 -10 5 0 7 5 4 10 -3 6 -8 10 -11 10 -2 0
-4 -4 -4 -10z"/>
<path d="M2760 2799 c0 -5 5 -7 10 -4 6 3 10 8 10 11 0 2 -4 4 -10 4 -5 0 -10
-5 -10 -11z"/>
<path d="M1800 2779 c0 -5 5 -7 10 -4 6 3 10 8 10 11 0 2 -4 4 -10 4 -5 0 -10
-5 -10 -11z"/>
<path d="M1815 2760 c-3 -5 -1 -10 4 -10 6 0 11 5 11 10 0 6 -2 10 -4 10 -3 0
-8 -4 -11 -10z"/>
<path d="M2160 2440 c-6 -11 -8 -20 -6 -20 3 0 10 9 16 20 6 11 8 20 6 20 -3
0 -10 -9 -16 -20z"/>
<path d="M1857 2433 c-11 -3 -16 -10 -13 -20 3 -8 6 -17 6 -19 0 -2 5 -4 12
-4 9 0 9 3 0 12 -9 9 -7 14 6 24 18 14 18 14 -11 7z"/>
<path d="M1698 2311 c-14 -5 -14 -9 -3 -24 12 -16 13 -16 18 5 7 26 7 27 -15
19z"/>
<path d="M1631 2177 c-13 -21 -12 -21 5 -5 10 10 16 20 13 22 -3 3 -11 -5 -18
-17z"/>
<path d="M2395 2150 c-3 -5 -1 -10 4 -10 6 0 11 5 11 10 0 6 -2 10 -4 10 -3 0
-8 -4 -11 -10z"/>
<path d="M2360 2131 c0 -6 5 -13 10 -16 6 -3 10 -17 10 -31 0 -21 3 -23 18
-15 10 6 28 7 40 4 12 -3 22 -1 22 5 0 5 -15 9 -34 8 -30 -1 -35 2 -40 26 -5
26 -26 40 -26 19z"/>
<path d="M2090 2121 c-6 -12 -20 -21 -30 -21 -11 0 -20 -4 -20 -8 0 -11 22
-32 34 -32 6 0 5 5 -1 11 -9 9 -6 16 10 29 15 13 24 15 29 7 4 -6 9 -9 12 -7
2 3 -2 13 -9 23 -13 18 -14 18 -25 -2z"/>
<path d="M2134 2073 c-4 -23 -11 -28 -35 -29 -31 -1 -47 -10 -36 -20 3 -3 14
-1 23 4 12 7 25 7 36 1 15 -8 18 -6 18 12 0 12 7 31 17 41 15 17 15 18 -1 18
-10 0 -19 -11 -22 -27z"/>
<path d="M2734 1968 l-19 -23 23 19 c12 11 22 21 22 23 0 8 -8 2 -26 -19z"/>
<path d="M3567 2043 c7 -18 22 -33 36 -33 14 0 6 15 -18 33 -24 17 -24 17 -18
0z"/>
<path d="M3430 1990 c0 -5 -12 -16 -26 -23 -17 -9 -23 -17 -15 -21 6 -4 11
-18 11 -32 0 -13 4 -24 9 -24 6 0 6 12 1 32 -8 25 -6 34 8 44 21 16 32 17 32
4 0 -5 7 -10 15 -10 13 0 14 -4 5 -22 -10 -21 -9 -20 9 2 l20 25 -20 3 c-11 2
-23 10 -26 18 -6 16 -23 19 -23 4z"/>
<path d="M3497 1793 c9 -3 11 -14 6 -31 l-6 -27 21 25 c18 23 19 26 4 32 -9 4
-21 7 -27 7 -5 -1 -4 -3 2 -6z"/>
<path d="M3438 1745 c3 -25 -1 -42 -14 -56 -14 -15 -15 -22 -5 -32 10 -9 11
-9 6 5 -5 13 -2 15 13 11 11 -2 23 0 26 5 4 6 -3 8 -16 6 -23 -5 -23 -4 0 6
13 5 36 8 50 5 l27 -5 -27 11 c-34 13 -37 31 -5 26 12 -2 7 1 -10 6 -22 7 -33
17 -33 29 0 10 -4 18 -8 18 -4 0 -6 -16 -4 -35z"/>
<path d="M2510 1940 c0 -6 -12 -15 -27 -21 -20 -7 -23 -13 -15 -21 7 -7 12
-25 12 -41 0 -24 3 -27 14 -18 8 7 25 9 40 5 23 -5 26 -3 26 19 0 14 5 29 10
32 17 11 11 25 -10 25 -11 0 -23 7 -26 15 -7 17 -24 20 -24 5z m30 -23 c10 -8
14 -21 10 -37 -4 -19 -11 -25 -32 -25 -16 -1 -28 5 -28 11 0 7 -3 19 -6 28 -4
11 -1 16 10 16 9 0 16 5 16 10 0 13 11 12 30 -3z"/>
<path d="M2330 1880 c-6 -11 -20 -20 -31 -20 -19 0 -19 -1 -2 -24 10 -13 20
-22 22 -20 3 2 0 9 -7 16 -17 17 28 50 47 35 12 -10 12 -9 2 11 -14 27 -17 27
-31 2z"/>
<path d="M2384 1851 c4 -5 1 -11 -5 -13 -7 -2 -10 -9 -8 -15 2 -6 12 0 22 13
16 21 16 24 2 24 -9 0 -14 -4 -11 -9z"/>
<path d="M2318 1803 c-10 -2 -18 -9 -18 -15 0 -6 7 -7 18 -3 9 4 22 7 27 7 6
0 18 -3 28 -7 9 -4 17 -3 17 3 0 8 -36 24 -50 21 -3 -1 -13 -3 -22 -6z"/>
<path d="M1521 1834 c0 -11 3 -14 6 -6 3 7 2 16 -1 19 -3 4 -6 -2 -5 -13z"/>
<path d="M1989 1513 c-13 -16 -12 -17 4 -4 9 7 17 15 17 17 0 8 -8 3 -21 -13z"/>
<path d="M1881 1465 c0 -16 25 -45 39 -45 10 0 10 -3 0 -15 -7 -9 -11 -17 -9
-19 2 -2 12 7 22 20 17 23 17 24 -1 24 -11 0 -27 10 -35 23 -9 12 -16 18 -16
12z"/>
<path d="M1830 1411 c0 -6 5 -13 10 -16 6 -3 10 -14 10 -24 0 -13 8 -17 35
-17 37 1 45 10 19 20 -9 4 -22 2 -29 -4 -9 -8 -14 -3 -18 20 -6 27 -27 44 -27
21z"/>
<path d="M3058 1348 c5 -5 16 -8 23 -6 8 3 3 7 -10 11 -17 4 -21 3 -13 -5z"/>
<path d="M2980 1336 c0 -2 7 -9 15 -16 13 -11 14 -10 9 4 -5 14 -24 23 -24 12z"/>
<path d="M3018 1283 c-10 -2 -18 -9 -18 -14 0 -6 9 -5 21 1 11 7 27 9 35 6 9
-3 12 -1 9 4 -6 10 -17 11 -47 3z"/>
<path d="M3195 1280 c3 -5 8 -10 11 -10 2 0 4 5 4 10 0 6 -5 10 -11 10 -5 0
-7 -4 -4 -10z"/>
<path d="M3163 1263 c-27 -5 -29 -16 -6 -34 13 -11 15 -11 9 -1 -5 8 -1 19 10
27 11 8 17 14 14 13 -3 0 -15 -3 -27 -5z"/>
<path d="M3160 1196 c0 -14 5 -17 22 -13 12 3 30 2 40 -4 13 -7 18 -6 18 3 0
9 -12 14 -32 13 -18 0 -36 5 -40 10 -4 6 -8 2 -8 -9z"/>
<path d="M2102 1241 c-11 -7 -11 -9 1 -14 9 -3 18 1 21 9 6 16 -2 18 -22 5z"/>
<path d="M1505 1129 c-4 -6 -3 -15 3 -21 6 -6 11 -4 15 6 7 18 -9 31 -18 15z"/>
<path d="M2740 4560 c-22 -31 -17 -39 11 -17 18 14 32 47 19 47 -5 0 -18 -13
-30 -30z"/>
<path d="M2791 4494 c0 -11 3 -14 6 -6 3 7 2 16 -1 19 -3 4 -6 -2 -5 -13z"/>
<path d="M2407 4435 c-10 -7 -14 -16 -9 -19 5 -3 15 1 22 9 17 21 9 27 -13 10z"/>
<path d="M2770 4439 c0 -5 5 -7 10 -4 6 3 10 8 10 11 0 2 -4 4 -10 4 -5 0 -10
-5 -10 -11z"/>
<path d="M2830 4439 c0 -5 5 -7 10 -4 6 3 10 8 10 11 0 2 -4 4 -10 4 -5 0 -10
-5 -10 -11z"/>
<path d="M2171 4322 c-6 -12 -11 -27 -11 -34 0 -7 7 0 15 16 9 16 13 31 11 33
-2 3 -9 -4 -15 -15z"/>
<path d="M1832 3569 c-7 -11 -11 -23 -9 -25 7 -7 29 24 25 36 -2 6 -9 1 -16
-11z"/>
<path d="M1857 3564 c-16 -22 -17 -25 -2 -30 23 -9 37 9 28 33 -8 21 -8 21
-26 -3z"/>
<path d="M3365 3501 c-11 -5 -24 -6 -30 -3 -6 3 -6 1 0 -6 11 -12 55 -5 55 9
0 5 -1 9 -2 8 -2 0 -12 -4 -23 -8z"/>
<path d="M3410 3500 c0 -5 5 -10 11 -10 5 0 7 5 4 10 -3 6 -8 10 -11 10 -2 0
-4 -4 -4 -10z"/>
<path d="M1741 3468 c-1 -9 -6 -18 -12 -20 -7 -2 -10 -11 -7 -18 3 -11 8 -9
17 8 7 13 10 28 7 35 -2 7 -5 5 -5 -5z"/>
<path d="M1938 3421 c-5 -32 5 -42 16 -15 3 9 2 23 -3 31 -6 12 -9 8 -13 -16z"/>
<path d="M1760 3415 c0 -14 5 -25 11 -25 5 0 8 -4 5 -8 -3 -5 1 -9 9 -9 19 0
19 5 -1 24 -8 9 -13 22 -10 29 3 8 1 14 -4 14 -6 0 -10 -11 -10 -25z"/>
<path d="M1725 3328 l-20 -21 23 12 c12 6 22 16 22 21 0 13 -2 12 -25 -12z"/>
<path d="M1605 2919 c-4 -6 -5 -12 -2 -15 2 -3 7 2 10 11 7 17 1 20 -8 4z"/>
<path d="M3470 2910 c0 -5 5 -10 11 -10 5 0 7 5 4 10 -3 6 -8 10 -11 10 -2 0
-4 -4 -4 -10z"/>
<path d="M3445 2879 c-4 -6 -5 -12 -2 -15 2 -3 7 2 10 11 7 17 1 20 -8 4z"/>
<path d="M1565 2870 c-3 -5 -2 -10 4 -10 5 0 13 5 16 10 3 6 2 10 -4 10 -5 0
-13 -4 -16 -10z"/>
<path d="M3616 2852 c-3 -6 1 -13 10 -16 23 -9 28 -2 10 13 -8 7 -17 8 -20 3z"/>
<path d="M3270 2756 c0 -2 7 -7 16 -10 8 -3 12 -2 9 4 -6 10 -25 14 -25 6z"/>
<path d="M3554 2715 c-18 -14 -18 -14 4 -8 12 3 22 9 22 14 0 12 -3 11 -26 -6z"/>
<path d="M3566 2691 c-3 -5 2 -11 12 -13 11 -3 19 0 19 8 0 16 -23 19 -31 5z"/>
<path d="M3720 2461 c7 -15 10 -41 6 -67 -3 -26 -2 -44 4 -44 11 0 12 5 12 63
0 24 -6 45 -17 55 -16 16 -17 16 -5 -7z"/>
<path d="M1380 2350 c-8 -6 -10 -10 -5 -10 6 0 3 -5 -5 -10 -13 -8 -12 -10 3
-10 10 0 20 7 24 15 7 21 1 26 -17 15z"/>
<path d="M3697 2344 c-3 -6 3 -18 14 -27 10 -9 20 -29 20 -44 1 -16 3 -38 4
-50 1 -12 -2 -20 -7 -17 -4 3 -5 11 -1 17 4 7 -5 4 -20 -5 -33 -22 -34 -22
-40 3 -3 12 -10 18 -16 14 -6 -3 -8 -17 -5 -30 4 -16 -1 -31 -15 -46 -23 -25
-28 -43 -8 -36 6 2 11 10 9 17 -2 8 3 10 13 6 10 -3 13 -2 10 5 -7 10 12 39
26 39 4 0 25 -17 45 -37 21 -21 35 -33 31 -28 -10 18 9 38 37 38 16 0 26 5 26
14 0 8 -4 12 -9 8 -16 -9 -34 35 -27 67 4 23 0 35 -19 54 -13 13 -31 24 -39
24 -8 0 -16 5 -18 12 -3 8 -7 8 -11 2z"/>
<path d="M3582 2280 c-7 -11 -8 -20 -3 -20 5 0 11 6 13 12 3 9 9 8 21 -4 13
-13 15 -22 8 -41 -9 -24 -6 -37 10 -37 4 0 5 9 2 20 -3 12 2 29 11 39 9 10 13
21 9 24 -3 4 0 7 7 7 7 0 10 3 7 6 -4 4 -14 1 -23 -7 -14 -11 -18 -11 -29 4
-15 22 -17 21 -33 -3z"/>
<path d="M3595 2230 c-3 -5 -1 -10 4 -10 6 0 11 5 11 10 0 6 -2 10 -4 10 -3 0
-8 -4 -11 -10z"/>
<path d="M3840 2172 c0 -12 19 -26 26 -19 2 2 -2 10 -11 17 -9 8 -15 8 -15 2z"/>
<path d="M1237 2039 c-9 -6 -17 -15 -17 -22 0 -8 3 -8 9 2 6 9 11 10 15 2 10
-16 26 -14 26 3 0 21 -12 26 -33 15z"/>
<path d="M1346 1888 l-19 -33 23 21 c12 12 21 27 19 33 -3 7 -13 -3 -23 -21z"/>
<path d="M1315 1840 c-4 -6 -11 -7 -17 -4 -7 4 -8 2 -4 -4 7 -12 36 -5 36 9 0
12 -7 11 -15 -1z"/>
<path d="M1186 1715 c-16 -12 -17 -15 -4 -15 9 0 18 7 22 15 7 18 6 18 -18 0z"/>
<path d="M3740 1710 c-8 -5 -13 -10 -10 -11 3 0 13 -2 22 -4 11 -2 15 2 11 11
-6 16 -4 16 -23 4z"/>
<path d="M3897 1649 c7 -7 15 -10 18 -7 3 3 -2 9 -12 12 -14 6 -15 5 -6 -5z"/>
<path d="M1490 1540 c0 -4 8 -11 17 -14 12 -5 13 -10 5 -18 -6 -6 -8 -16 -5
-23 3 -9 -2 -12 -15 -8 -11 2 -22 1 -25 -4 -3 -4 8 -8 24 -9 22 -1 29 3 29 17
0 10 5 21 10 24 16 10 12 19 -15 32 -14 6 -25 8 -25 3z"/>
<path d="M1358 1517 c-3 -19 -2 -25 4 -19 6 6 8 18 6 28 -3 14 -5 12 -10 -9z"/>
<path d="M1186 1493 c8 -46 5 -42 29 -32 15 6 16 8 4 8 -21 1 -33 42 -16 53 8
5 6 8 -6 8 -15 0 -17 -6 -11 -37z"/>
<path d="M3650 1520 c0 -6 7 -10 15 -10 8 0 15 2 15 4 0 2 -7 6 -15 10 -8 3
-15 1 -15 -4z"/>
<path d="M1112 1497 c-22 -23 -30 -89 -14 -113 26 -39 93 -44 127 -9 29 28 30
34 12 59 -11 15 -17 17 -35 7 -21 -11 -22 -9 -22 22 0 57 -32 73 -68 34z"/>
<path d="M1500 1440 c0 -13 18 -22 24 -11 3 5 -1 11 -9 15 -8 3 -15 1 -15 -4z"/>
<path d="M3656 1435 c4 -8 11 -15 16 -15 6 0 5 6 -2 15 -7 8 -14 15 -16 15 -2
0 -1 -7 2 -15z"/>
<path d="M1720 1400 c-6 -11 -20 -20 -30 -20 -24 0 -26 -13 -3 -31 14 -12 16
-12 11 2 -6 15 28 46 45 41 10 -3 9 16 -2 23 -6 3 -15 -4 -21 -15z"/>
<path d="M3890 1399 c0 -5 5 -7 10 -4 6 3 10 8 10 11 0 2 -4 4 -10 4 -5 0 -10
-5 -10 -11z"/>
<path d="M1769 1382 c9 -7 10 -12 2 -16 -6 -4 -11 -16 -11 -26 0 -14 -5 -18
-17 -14 -15 5 -16 4 -3 -5 8 -6 18 -11 21 -11 5 0 15 33 20 67 0 4 -5 9 -13
11 -10 3 -10 2 1 -6z"/>
<path d="M3510 1340 c0 -5 7 -10 15 -10 8 0 15 5 15 10 0 6 -7 10 -15 10 -8 0
-15 -4 -15 -10z"/>
<path d="M1725 1270 c-3 -5 -1 -10 4 -10 6 0 11 5 11 10 0 6 -2 10 -4 10 -3 0
-8 -4 -11 -10z"/>
<path d="M1460 1245 c-11 -13 -8 -15 13 -15 30 0 44 15 21 24 -21 8 -20 8 -34
-9z"/>
<path d="M3789 1189 c-11 -35 -16 -40 -36 -36 -13 2 -23 0 -23 -4 0 -5 -1 -12
-2 -16 -2 -3 8 -7 22 -8 14 -1 43 -5 65 -10 36 -6 38 -6 21 7 -17 13 -17 19
-6 53 10 31 10 39 -1 46 -23 14 -28 11 -40 -32z"/>
<path d="M1105 1190 c-3 -5 -3 -15 1 -21 3 -6 0 -16 -7 -21 -11 -8 -10 -9 4
-4 10 3 17 0 17 -8 0 -18 -27 -28 -34 -13 -2 7 -5 4 -5 -5 -1 -24 21 -23 54 4
23 18 25 22 11 30 -9 5 -16 15 -16 23 0 18 -17 28 -25 15z"/>
<path d="M3550 1130 c0 -5 5 -10 11 -10 5 0 7 5 4 10 -3 6 -8 10 -11 10 -2 0
-4 -4 -4 -10z"/>
<path d="M1240 1097 c0 -24 40 -43 51 -26 6 10 3 15 -9 18 -9 2 -23 8 -29 13
-10 8 -13 6 -13 -5z"/>
<path d="M3930 1060 c0 -6 7 -13 15 -16 10 -4 13 -13 9 -26 -4 -14 -2 -18 5
-14 16 10 14 36 -4 42 -8 4 -12 10 -9 15 3 5 0 9 -5 9 -6 0 -11 -5 -11 -10z"/>
<path d="M1907 1044 c27 -19 20 -44 -10 -37 -18 3 -16 1 6 -12 16 -9 31 -14
35 -11 3 3 0 6 -7 6 -9 0 -9 5 -1 21 13 23 14 22 -20 38 -25 11 -25 11 -3 -5z"/>
<path d="M3870 1028 c0 -19 -5 -28 -16 -28 -10 0 -14 -6 -11 -14 4 -9 -1 -17
-11 -19 -15 -4 -15 -5 1 -6 10 0 20 6 23 14 4 8 10 15 15 15 5 0 9 -7 9 -15 0
-8 -4 -15 -10 -15 -5 0 -7 -7 -3 -16 4 -12 0 -14 -22 -8 -20 5 -26 4 -21 -5 4
-6 23 -11 42 -11 19 0 34 -4 34 -9 0 -5 13 -8 29 -7 23 0 27 4 19 13 -6 7 -19
13 -29 13 -11 0 -19 7 -19 15 0 10 10 15 29 15 21 0 30 -6 35 -22 4 -17 8 -20
17 -11 17 17 -13 43 -50 43 -26 0 -31 4 -31 23 0 13 -7 32 -15 43 -14 18 -14
18 -15 -8z"/>
<path d="M1220 1021 c0 -11 -7 -27 -16 -35 -14 -15 -11 -16 28 -16 38 1 41 2
26 14 -10 7 -18 23 -18 35 0 11 -4 21 -10 21 -5 0 -10 -9 -10 -19z"/>
<path d="M2130 1023 c-28 -5 -70 -43 -48 -43 7 0 26 7 42 15 15 8 38 15 50 15
17 0 18 2 6 10 -8 5 -17 9 -20 8 -3 0 -16 -3 -30 -5z"/>
<path d="M3980 1021 c0 -5 5 -13 10 -16 6 -3 10 -2 10 4 0 5 -4 13 -10 16 -5
3 -10 2 -10 -4z"/>
<path d="M1151 994 c0 -11 3 -14 6 -6 3 7 2 16 -1 19 -3 4 -6 -2 -5 -13z"/>
<path d="M2030 1000 c0 -5 -13 -10 -30 -10 -20 0 -30 -5 -30 -15 0 -10 10 -15
28 -15 32 1 60 20 55 38 -5 14 -23 16 -23 2z"/>
<path d="M3571 933 c2 -57 6 -72 26 -91 13 -12 21 -27 18 -32 -4 -6 6 -10 22
-9 19 1 22 3 10 6 -18 5 -18 6 2 19 30 21 26 36 -8 31 -29 -5 -29 -4 -47 69
-9 41 -19 74 -21 74 -2 0 -3 -30 -2 -67z"/>
<path d="M2673 962 c-18 -9 -33 -19 -33 -24 0 -15 19 -8 47 17 32 28 31 28
-14 7z"/>
<path d="M2269 953 c-42 -4 -47 -7 -52 -31 -3 -15 -3 -56 0 -90 5 -49 3 -66
-8 -73 -12 -7 -11 -11 4 -26 16 -16 17 -15 17 41 l0 57 53 -3 52 -3 3 68 c2
50 0 67 -10 65 -7 -1 -34 -3 -59 -5z"/>
<path d="M3768 913 c7 -3 16 -2 19 1 4 3 -2 6 -13 5 -11 0 -14 -3 -6 -6z"/>
<path d="M3726 895 c3 -7 0 -16 -5 -20 -13 -7 -5 -25 10 -25 6 0 7 5 4 10 -3
6 0 10 9 10 8 0 17 -6 19 -12 3 -8 6 -6 6 5 1 9 5 17 9 17 5 0 17 7 28 16 18
14 18 15 -4 4 -16 -8 -32 -8 -52 -1 -23 7 -28 7 -24 -4z"/>
<path d="M2011 877 c-12 -23 -12 -31 -1 -53 12 -21 12 -27 1 -33 -10 -6 -10
-10 -1 -16 18 -11 21 -1 18 66 -3 60 -3 61 -17 36z"/>
<path d="M1022 850 c0 -14 2 -19 5 -12 2 6 2 18 0 25 -3 6 -5 1 -5 -13z"/>
<path d="M1056 852 c22 -19 23 -70 1 -85 -7 -5 -2 -7 13 -5 19 2 24 8 23 24
-2 15 4 24 18 27 17 5 20 2 16 -14 -3 -10 -1 -19 4 -19 5 0 9 5 9 10 0 6 8 10
18 8 13 -2 17 5 19 30 1 31 0 32 -13 15 -13 -17 -13 -17 -14 5 0 13 -4 20 -10
17 -6 -4 -8 -11 -5 -16 4 -5 1 -9 -4 -9 -6 0 -11 6 -11 13 0 7 -16 13 -43 14
-41 2 -42 2 -21 -15z m54 -12 c0 -5 -4 -10 -10 -10 -5 0 -10 5 -10 10 0 6 5
10 10 10 6 0 10 -4 10 -10z"/>
<path d="M1991 736 c-24 -13 -24 -13 13 -20 27 -5 36 -12 36 -27 0 -13 4 -18
13 -13 9 6 9 5 0 -7 -7 -9 -14 -29 -16 -45 -2 -17 -7 -36 -12 -44 -5 -8 -9
-24 -10 -35 0 -25 -30 -31 -51 -10 -9 9 -19 13 -22 10 -4 -3 0 -10 8 -15 12
-7 12 -12 2 -22 -14 -14 -28 -4 -35 27 -3 11 -5 2 -4 -20 0 -35 3 -40 23 -41
15 -1 26 5 29 17 4 12 16 19 32 19 15 0 23 -5 20 -12 -2 -7 -11 -12 -21 -10
-9 2 -16 -2 -16 -8 0 -13 27 -13 35 0 4 6 13 4 23 -7 12 -12 13 -18 4 -21 -14
-4 -16 -42 -2 -42 6 0 10 -8 11 -17 0 -12 2 -14 6 -5 4 10 11 8 29 -9 26 -24
23 -39 -8 -39 -14 0 -18 5 -14 15 4 10 -1 15 -14 15 -16 0 -20 -7 -20 -36 l0
-35 53 3 52 3 3 40 c2 30 0 36 -8 25 -7 -11 -10 -11 -10 -2 0 7 -4 11 -8 8
-14 -8 -63 51 -56 68 3 9 10 16 14 16 16 0 30 -28 23 -46 -6 -17 -5 -17 10 -6
9 8 20 11 25 8 6 -3 12 4 16 17 9 35 7 42 -7 22 -15 -19 -37 -13 -37 11 0 13
12 18 33 15 4 0 7 6 7 14 0 23 -36 18 -48 -7 -6 -13 -11 -17 -11 -10 -1 8 -6
10 -13 6 -7 -4 -5 2 6 14 10 11 16 27 13 34 -4 9 -6 8 -6 -3 -1 -22 -32 -33
-43 -17 -5 7 -6 27 -3 43 3 17 6 38 6 48 0 22 3 22 35 -8 15 -14 38 -25 50
-25 21 0 24 5 24 35 0 31 3 35 28 36 16 1 20 3 10 6 -10 2 -18 9 -18 14 0 6
-5 7 -12 3 -7 -4 -8 -3 -4 4 4 7 16 12 26 12 10 0 22 5 25 11 4 6 0 9 -11 7
-14 -2 -18 2 -16 16 2 12 -1 16 -9 10 -9 -5 -10 -2 -6 9 5 14 3 15 -13 4 -11
-6 -20 -15 -20 -19 0 -18 -53 -6 -71 15 -14 16 -17 17 -13 5 4 -12 1 -18 -9
-18 -21 0 -31 17 -15 23 7 3 9 6 3 6 -5 0 -21 -6 -34 -13z m106 -42 c-3 -3
-12 -4 -19 -1 -8 3 -5 6 6 6 11 1 17 -2 13 -5z m41 -25 c-2 -6 -8 -10 -13 -10
-5 0 -11 4 -13 10 -2 6 4 11 13 11 9 0 15 -5 13 -11z m-33 -28 c3 -5 1 -13 -5
-16 -15 -9 -43 3 -35 15 8 13 32 13 40 1z m29 -51 c-6 -6 -15 -6 -24 0 -13 9
-13 11 0 20 18 11 39 -5 24 -20z m-4 -266 c0 -8 -5 -12 -10 -9 -6 4 -8 11 -5
16 9 14 15 11 15 -7z"/>
<path d="M2080 740 c0 -5 11 -10 25 -10 14 0 25 5 25 10 0 6 -11 10 -25 10
-14 0 -25 -4 -25 -10z"/>
<path d="M2320 735 c-8 -10 -9 -15 -1 -15 7 0 11 -31 12 -92 0 -51 5 -102 10
-113 5 -13 7 26 3 105 -3 69 -7 126 -9 128 -1 1 -8 -4 -15 -13z"/>
<path d="M2560 727 c0 -11 -7 -28 -15 -37 -13 -14 -12 -16 13 -15 24 0 27 4
30 36 2 27 -1 36 -12 36 -9 0 -16 -9 -16 -20z"/>
<path d="M3806 723 c-6 -14 -5 -15 5 -6 7 7 10 15 7 18 -3 3 -9 -2 -12 -12z"/>
<path d="M2190 720 c0 -5 5 -10 11 -10 5 0 7 5 4 10 -3 6 -8 10 -11 10 -2 0
-4 -4 -4 -10z"/>
<path d="M3850 723 c0 -6 7 -16 15 -23 11 -9 13 -16 6 -23 -7 -7 -15 -6 -26 3
-9 8 -19 9 -23 4 -4 -5 -5 -8 -3 -7 2 2 12 -6 21 -17 14 -16 20 -17 34 -7 18
14 32 62 14 51 -6 -4 -17 1 -25 11 -7 11 -13 14 -13 8z"/>
<path d="M3926 713 c-6 -14 -5 -15 5 -6 7 7 10 15 7 18 -3 3 -9 -2 -12 -12z"/>
<path d="M1874 683 c3 -19 1 -33 -4 -33 -16 0 -11 -32 8 -47 9 -8 12 -12 6 -9
-7 3 -15 -1 -18 -10 -8 -21 32 -9 57 17 10 11 22 19 26 19 5 0 11 6 14 14 4 9
-2 14 -19 14 -13 0 -21 -4 -18 -9 3 -5 -2 -12 -10 -15 -9 -3 -13 -11 -10 -18
4 -6 -1 -4 -11 6 -18 17 -13 38 10 38 8 0 18 8 24 17 8 14 12 15 25 4 14 -12
16 -10 16 13 0 21 -4 25 -21 23 -11 -2 -24 -9 -28 -16 -12 -19 -18 -18 -36 4
-16 19 -16 19 -11 -12z"/>
<path d="M2210 660 c0 -5 7 -7 15 -4 8 4 15 8 15 10 0 2 -7 4 -15 4 -8 0 -15
-4 -15 -10z"/>
<path d="M2576 655 c-5 -13 -2 -14 17 -4 32 17 33 19 10 19 -12 0 -23 -7 -27
-15z"/>
<path d="M2523 624 c-13 -29 0 -55 25 -46 6 2 12 -3 12 -12 0 -9 -5 -16 -12
-16 -6 0 -8 -3 -5 -6 4 -4 13 -1 22 6 11 9 18 10 29 1 10 -9 15 -8 20 4 3 8
12 15 20 15 10 0 13 12 12 40 0 22 -4 40 -8 40 -5 0 -8 -3 -8 -7 0 -5 -13 -15
-29 -24 -28 -16 -29 -16 -47 8 l-19 24 -12 -27z m90 -42 c-11 -8 -20 -9 -27
-2 -7 7 -3 15 9 24 15 11 22 11 27 3 4 -7 0 -18 -9 -25z"/>
<path d="M1940 580 c-8 -5 -10 -10 -5 -10 6 0 20 -3 33 -6 18 -5 21 -3 16 10
-7 18 -22 20 -44 6z"/>
<path d="M2509 561 c6 -10 7 -22 3 -26 -4 -5 -2 -5 5 -2 13 8 6 47 -9 47 -5 0
-4 -8 1 -19z"/>
<path d="M3795 570 c3 -5 8 -10 11 -10 2 0 4 5 4 10 0 6 -5 10 -11 10 -5 0 -7
-4 -4 -10z"/>
<path d="M3417 546 c-24 -18 -22 -23 13 -28 32 -5 41 11 17 30 -8 7 -17 7 -30
-2z"/>
<path d="M2773 527 c-4 -8 -16 -16 -25 -20 -10 -3 -18 -11 -18 -17 0 -6 5 -8
10 -5 6 3 10 0 11 -7 0 -7 4 -4 9 7 7 15 9 9 9 -26 1 -27 7 -51 15 -58 11 -9
14 -3 14 34 1 31 -2 44 -10 39 -7 -5 -8 -2 -3 6 11 18 13 60 3 60 -4 0 -11 -6
-15 -13z"/>
<path d="M2431 498 c-19 -12 -29 -24 -23 -26 11 -3 82 34 82 44 0 10 -28 2
-59 -18z"/>
<path d="M1850 499 c0 -6 7 -18 16 -26 14 -15 14 -17 0 -25 -9 -5 -16 -14 -16
-19 0 -14 26 -39 40 -39 7 0 10 -7 6 -15 -3 -8 0 -14 6 -12 6 1 13 -4 15 -10
3 -8 -4 -13 -16 -13 -15 0 -21 6 -21 21 0 18 -2 20 -16 9 -8 -8 -14 -25 -12
-39 3 -23 8 -26 51 -29 l47 -3 0 35 c0 24 -5 36 -14 36 -7 0 -19 6 -25 14 -10
12 -8 17 7 25 11 6 22 7 26 4 3 -3 6 4 6 16 0 12 -4 20 -9 16 -11 -6 -67 43
-63 56 1 5 -5 9 -13 9 -8 0 -15 -5 -15 -11z m61 -83 c-14 -16 -41 -11 -41 8 0
7 5 17 12 24 19 19 46 -11 29 -32z"/>
</g>
</svg>
