<svg id="Capa_1" enable-background="new 0 0 512 512" height="512" viewBox="0 0 512 512" width="512" xmlns="http://www.w3.org/2000/svg"><g><g><g><g><g><path d="m427.197 298.552c3-4.277 4.873-10.316 4.873-17.014 0-12.966-7.008-23.478-15.652-23.478s-15.652 10.511-15.652 23.478c0 6.698 1.873 12.737 4.873 17.014z" fill="#08b865"/><g fill="#09a755"><path d="m377.723 298.552h28.462c2.7-6.43.253-15.536-6.593-22.381-8.354-8.354-20.081-10.17-26.193-4.058s-4.295 17.839 4.058 26.193c.087.086.179.161.266.246z"/><path d="m455.114 298.552c.087-.085.179-.16.265-.246 8.354-8.354 10.17-20.081 4.058-26.193s-17.839-4.296-26.193 4.058c-6.845 6.845-9.292 15.951-6.593 22.381z"/></g></g><g fill="#fedf30"><path d="m403.541 297.552h-43.005c-2.672 0-4.842 2.041-5.1 4.645 5.38 7.933 10.905 15.764 16.554 23.438 2.142 2.909 1.899 6.907-.575 9.505l-15.171 15.938.408.657c3.758 6.052 7.613 12.077 11.537 18.07h36.352v-67.839z"/><path d="m477.452 369.805v-67.101c0-2.845-2.306-5.151-5.151-5.151h-43.005l-1 4.449v67.804h49.156z"/></g><path d="m403.541 297.552h25.754v72.252h-25.754z" fill="#00c27a"/></g><path d="m488.333 368.805h-120.805c9.238 14.148 18.912 28.111 28.906 41.685 2.617 3.555 2.295 8.469-.767 11.685l-24.462 25.698c-1.745 1.833-4.102 2.844-6.633 2.844-2.532 0-4.889-1.01-6.634-2.844-12.533-13.166-29.447-20.417-47.626-20.417-10.429 0-20.818 2.501-30.045 7.234l-.544 1.946v72.209l1 3.155h207.609c2.845 0 5.151-2.306 5.151-5.151v-132.893c.001-2.845-2.305-5.151-5.15-5.151z" fill="#fd4755"/><g><path d="m280.724 435.58v76.42h37.032v-83.11c-12.585-1.452-25.508.78-37.032 6.69z" fill="#fb2b3a"/></g><g><path d="m427.076 512 66.408-66.408v-36.422l-102.831 102.83z" fill="#fedf30"/></g></g><g><g><g><path d="m122.36 361.394c.087-.085.179-.16.266-.247 8.354-8.354 10.17-20.081 4.058-26.193s-17.839-4.296-26.193 4.058c-6.845 6.845-9.292 15.951-6.593 22.382z" fill="#09a755"/><path d="m69.85 361.394h28.462c2.7-6.43.253-15.536-6.593-22.382-8.354-8.354-20.081-10.17-26.193-4.058s-4.296 17.839 4.058 26.193c.087.086.179.161.266.247z" fill="#08b865"/></g></g><g fill="#fedf30"><path d="m83.228 360.393h-43.005c-2.845 0-5.151 2.306-5.151 5.151v59.375h49.156v-61.42z"/><path d="m108.982 360.393-1 1.912v37.695l1 .527c2.281-1.508 5.01-2.392 7.944-2.392 1.987 0 3.919.401 5.742 1.192l.743.322.47-.66c9.014-12.654 17.733-25.598 26.017-38.596z"/></g><g><path d="m63.356 423.92v-58.375c0-2.845 2.306-5.151 5.151-5.151h-28.284c-2.845 0-5.151 2.306-5.151 5.151v58.375z" fill="#fed402"/></g><path d="m108.982 424.919v-.016l-1.858-1.718c-2.999-2.776-4.651-6.54-4.651-10.598 0-5.036 2.593-9.473 6.51-12.061v-40.133h-25.755v64.526z" fill="#00c27a"/><g fill="#fd4755"><path d="m62.296 462.006v-33.594l-1-4.492h-37.629c-2.845 0-5.151 2.306-5.151 5.151v31.936l4.864 1h38.916z"/><path d="m62.296 485.761h-38.81l-4.969 1v20.089c0 2.845 2.306 5.151 5.151 5.151h37.629l1-3.364v-22.876z"/><path d="m231.731 434.69c-9.227-4.732-19.616-7.234-30.045-7.234-18.179 0-35.093 7.25-47.625 20.416-1.746 1.834-4.102 2.844-6.634 2.844-2.531 0-4.888-1.01-6.633-2.844l-20.279-21.303c-1.15.296-2.349.47-3.59.47-3.377 0-6.48-1.173-8.943-3.121h-20.932l-1 4.782v33.305h132.104l14.121-1v-24.37z"/><path d="m228 485.761h-141.949v22.659l.999 3.58h144.226l.999-3.155v-22.084z"/></g><g fill="#fb2b3a"><path d="m44.759 461.006v-31.936c0-2.845 2.306-5.151 5.151-5.151h-26.243c-2.845 0-5.151 2.306-5.151 5.151v31.936z"/><path d="m44.759 506.849v-20.089h-26.243v20.089c0 2.845 2.306 5.151 5.151 5.151h26.242c-2.844 0-5.15-2.306-5.15-5.151z"/></g><path d="m18.516 461.006h213.759v25.755h-213.759z" fill="#00c27a"/><g><path d="m61.296 423.92h25.755v88.08h-25.755z" fill="#46cc8d"/></g></g></g><g><g><path d="m262.612 447.852c-1.739 1.828-4.088 2.835-6.612 2.835s-4.872-1.007-6.612-2.835c-5.325-5.594-11.446-10.109-18.113-13.468v77.616h49.449v-77.616c-6.666 3.359-12.787 7.874-18.112 13.468z" fill="#a44f3e"/></g><g><path d="m248.642 448.562c-5.174-5.435-11.063-9.75-17.366-12.982v76.42h20.604v-61.162c-1.183-.525-2.288-1.278-3.238-2.276z" fill="#883f2e"/></g><g><path d="m397.24 409.897c-14.304-19.429-27.742-39.309-40.302-59.591l-5.78 6.072c-1.406 1.476-3.302 2.289-5.34 2.289s-3.936-.813-5.341-2.289l-4.489-4.716c-9.231-9.698-21.689-15.038-35.078-15.038s-25.847 5.341-35.078 15.038l-4.49 4.716c-1.406 1.476-3.302 2.29-5.34 2.29s-3.935-.813-5.34-2.29l-4.489-4.716c-9.232-9.698-21.69-15.038-35.079-15.038s-25.847 5.341-35.078 15.039l-4.489 4.716c-1.406 1.476-3.302 2.29-5.34 2.29s-3.935-.813-5.34-2.29l-5.781-6.073c-10.276 16.592-21.149 32.911-32.593 48.939 5.224 2.179 8.908 7.337 8.908 13.343 0 7.134-5.201 13.063-12.008 14.23l20.7 21.745c4.004 4.206 10.712 4.206 14.715 0 25.535-26.825 68.321-26.825 93.856 0 4.004 4.206 10.712 4.206 14.716 0l.001-.001c25.535-26.825 68.321-26.825 93.856 0l.001.001c4.003 4.206 10.712 4.206 14.716 0l24.462-25.698c3.376-3.55 3.749-9.021.844-12.968z" fill="#46cc8d"/><path d="m156.998 409.897c17.164-23.313 33.081-47.276 47.726-71.804-10.292 1.387-20.214 6.139-27.964 14.28l-4.489 4.716c-3.312 3.479-8.861 3.479-12.173 0l-5.592-5.874c-10.109 16.28-20.798 32.295-32.034 48.03 5.224 2.18 8.907 7.337 8.907 13.342 0 7.134-5.201 13.063-12.008 14.23l20.7 21.745c4.004 4.206 10.712 4.206 14.715 0 4.769-5.01 10.14-9.082 15.888-12.221l-12.829-13.477c-3.379-3.55-3.753-9.02-.847-12.967z" fill="#00c27a"/><g><path d="m372.796 325.043c-12.27-16.669-23.765-33.743-34.483-51.17l-5.507 5.786c-1.099 1.154-2.582 1.79-4.176 1.79s-3.076-.636-4.175-1.79l-4.849-5.094c-7.182-7.545-16.874-11.7-27.291-11.7s-20.109 4.155-27.291 11.7l-4.849 5.094c-1.099 1.154-2.581 1.79-4.175 1.79s-3.076-.636-4.175-1.79l-4.849-5.093c-7.182-7.545-16.874-11.7-27.291-11.7s-20.109 4.155-27.291 11.7l-4.848 5.093c-1.099 1.154-2.581 1.79-4.176 1.79-1.594 0-3.076-.636-4.175-1.79l-5.508-5.786c-10.718 17.427-22.213 34.501-34.483 51.17-2.42 3.288-2.159 7.83.656 10.788l20.237 21.259c3.312 3.479 8.862 3.479 12.174 0l4.489-4.716c18.681-19.625 49.983-19.625 68.664 0l4.489 4.716c3.312 3.479 8.861 3.479 12.174 0l4.489-4.716c18.681-19.625 49.983-19.625 68.664 0l4.489 4.716c3.312 3.479 8.861 3.479 12.173 0l20.237-21.259c2.816-2.958 3.077-7.5.657-10.788z" fill="#08b865"/></g><g><path d="m182.447 325.042c9.467-12.861 18.463-25.966 27.003-39.286-5.541-3.184-9.704-8.492-11.37-14.818-1.741 1.274-3.396 2.717-4.939 4.337l-4.848 5.093c-2.678 2.814-7.166 2.814-9.844 0l-5.319-5.588c-10.558 17.112-21.868 33.881-33.925 50.261-2.42 3.288-2.159 7.83.656 10.788l20.237 21.259c3.312 3.479 8.862 3.479 12.174 0l4.489-4.716c3.849-4.043 8.238-7.239 12.937-9.617l-6.594-6.927c-2.816-2.955-3.077-7.498-.657-10.786z" fill="#09a755"/></g><g><path d="m350.446 254.454c-12.617-17.14-24.225-34.807-34.803-52.922l-4.044 4.248c-.744.782-1.749 1.213-2.829 1.213-1.081 0-2.086-.431-2.83-1.213l-3.001-3.152c-5.409-5.683-12.708-8.812-20.553-8.812-7.846 0-15.145 3.129-20.554 8.812l-3.001 3.152c-.744.782-1.75 1.213-2.83 1.213s-2.086-.431-2.83-1.213l-3-3.152c-5.409-5.683-12.709-8.812-20.554-8.812-7.846 0-15.145 3.129-20.554 8.812l-3.001 3.152c-.744.782-1.749 1.213-2.83 1.213-1.079 0-2.085-.431-2.829-1.213l-4.044-4.248c-10.579 18.116-22.186 35.782-34.803 52.922-1.958 2.659-1.746 6.332.53 8.724l16.364 17.191c2.678 2.814 7.166 2.813 9.844 0l4.848-5.093c14.444-15.173 38.645-15.174 53.089 0l4.848 5.093c2.678 2.814 7.166 2.814 9.844 0l4.849-5.093c14.444-15.173 38.645-15.173 53.089 0l4.848 5.093c2.678 2.814 7.166 2.814 9.844 0l16.364-17.191c2.276-2.392 2.487-6.065.529-8.724z" fill="#00c27a"/></g><g><path d="m197.28 264.757c0-10.705 6.951-19.781 16.585-22.977 10.007-14.359 19.33-29.06 27.941-44.069-10.424-5.19-23.482-3.319-31.997 5.627l-3.001 3.152c-1.946 2.044-5.206 2.044-7.152 0l-3.838-4.032c-10.433 17.792-21.861 35.147-34.263 51.995-1.958 2.659-1.746 6.332.53 8.724l16.364 17.191c2.678 2.814 7.166 2.813 9.844 0l4.848-5.093c1.542-1.62 3.198-3.061 4.94-4.333-.521-1.975-.801-4.047-.801-6.185z" fill="#08b865"/></g><g><path d="m324.62 187.662c-26.233-35.638-46.486-74.39-60.177-115.07l-5.767-3.032c-.823-.432-1.747-.66-2.676-.66s-1.853.228-2.675.66l-5.768 3.032c-13.691 40.679-33.944 79.432-60.177 115.069-1.422 1.932-1.27 4.601.385 6.339l11.89 12.49c1.946 2.044 5.206 2.044 7.152 0l3.001-3.152c10.778-11.323 28.837-11.323 39.615 0l3.001 3.152c1.946 2.044 5.206 2.044 7.152 0l3.001-3.152c10.778-11.322 28.837-11.322 39.615 0l3.001 3.152c1.946 2.044 5.206 2.044 7.152 0l11.889-12.49c1.655-1.738 1.808-4.406.386-6.338z" fill="#46cc8d"/></g><g><path d="m272.199 93.722c-2.605-6.518-5.03-13.095-7.29-19.721l-6.712-3.529c-1.375-.723-3.018-.723-4.393 0l-6.722 3.534c-13.683 40.164-33.773 78.431-59.701 113.656-1.422 1.932-1.27 4.601.385 6.339l11.89 12.49c1.946 2.044 5.206 2.044 7.152 0l3.001-3.152c3.471-3.646 7.698-6.111 12.192-7.409l-1.838-1.93c-1.655-1.738-1.807-4.406-.385-6.339 21.653-29.414 39.237-60.95 52.421-93.939z" fill="#00c27a"/></g></g><g><path d="m260.233 2.631 9.415 19.077c.688 1.393 2.017 2.359 3.554 2.582l21.053 3.059c3.871.563 5.417 5.32 2.616 8.051l-15.234 14.85c-1.112 1.084-1.62 2.647-1.357 4.178l3.596 20.968c.661 3.856-3.386 6.796-6.849 4.976l-18.83-9.9c-1.375-.723-3.018-.723-4.393 0l-18.83 9.9c-3.463 1.82-7.51-1.12-6.849-4.976l3.596-20.968c.263-1.531-.245-3.093-1.357-4.178l-15.235-14.85c-2.801-2.731-1.256-7.488 2.616-8.051l21.053-3.059c1.537-.223 2.866-1.189 3.554-2.582l9.415-19.077c1.732-3.508 6.734-3.508 8.466 0z" fill="#fedf30"/></g><g><g><path d="m250.038 67.669 3.596-20.968c.263-1.531-.245-3.093-1.358-4.178l-15.234-14.85c-.864-.843-1.312-1.878-1.408-2.924l-17.889 2.599c-3.871.563-5.418 5.32-2.616 8.051l15.234 14.85c1.113 1.084 1.62 2.647 1.358 4.178l-3.596 20.968c-.661 3.856 3.386 6.796 6.849 4.976l16.356-8.599c-1.004-1.012-1.571-2.473-1.292-4.103z" fill="#fed402"/></g></g><g><g><circle cx="297.722" cy="152.982" fill="#fe860a" r="15.453"/></g><g><path d="m296.177 152.982c0-6.03 3.462-11.24 8.499-13.786-2.092-1.057-4.449-1.667-6.954-1.667-8.534 0-15.453 6.918-15.453 15.453s6.918 15.453 15.453 15.453c2.504 0 4.862-.609 6.954-1.667-5.037-2.546-8.499-7.756-8.499-13.786z" fill="#fe7701"/></g><g><circle cx="214.278" cy="152.982" fill="#fd4755" r="15.453"/></g><g><path d="m211.702 152.982c0-6.233 3.699-11.591 9.014-14.034-1.962-.902-4.138-1.418-6.439-1.418-8.534 0-15.453 6.918-15.453 15.453s6.918 15.453 15.453 15.453c2.301 0 4.477-.517 6.439-1.418-5.315-2.445-9.014-7.803-9.014-14.036z" fill="#fb2b3a"/></g></g><g><g><g><circle cx="203.976" cy="428.04" fill="#fedf30" r="15.453"/></g><g><path d="m202.431 428.04c0-6.03 3.462-11.24 8.499-13.786-2.092-1.057-4.449-1.667-6.954-1.667-8.534 0-15.453 6.918-15.453 15.453s6.918 15.453 15.453 15.453c2.504 0 4.862-.609 6.954-1.667-5.038-2.546-8.499-7.756-8.499-13.786z" fill="#fed402"/></g><g><circle cx="308.024" cy="428.04" fill="#fedf30" r="15.453"/></g><g><path d="m306.479 428.04c0-6.03 3.462-11.24 8.499-13.786-2.092-1.057-4.449-1.667-6.954-1.667-8.534 0-15.453 6.918-15.453 15.453s6.918 15.453 15.453 15.453c2.504 0 4.862-.609 6.954-1.667-5.037-2.546-8.499-7.756-8.499-13.786z" fill="#fed402"/></g></g><g><g><circle cx="395.074" cy="412.588" fill="#fe860a" r="15.453"/></g><g><path d="m393.014 412.588c0-6.132 3.581-11.413 8.757-13.91-2.028-.978-4.294-1.543-6.696-1.543-8.534 0-15.453 6.918-15.453 15.453s6.918 15.453 15.453 15.453c2.403 0 4.668-.564 6.696-1.543-5.176-2.497-8.757-7.779-8.757-13.91z" fill="#fe7701"/></g><g><circle cx="116.926" cy="412.588" fill="#fe860a" r="15.453"/></g><g><path d="m114.865 412.588c0-6.132 3.58-11.413 8.757-13.91-2.028-.978-4.294-1.543-6.696-1.543-8.534 0-15.453 6.918-15.453 15.453s6.918 15.453 15.453 15.453c2.403 0 4.668-.564 6.696-1.543-5.176-2.497-8.757-7.779-8.757-13.91z" fill="#fe7701"/></g></g></g><g><circle cx="221.489" cy="264.757" fill="#fd4755" r="24.209"/></g><g><path d="m217.883 264.757c0-9.686 5.69-18.039 13.907-21.91-3.126-1.473-6.617-2.3-10.302-2.3-13.37 0-24.209 10.839-24.209 24.209s10.839 24.209 24.209 24.209c3.685 0 7.175-.827 10.302-2.3-8.217-3.87-13.907-12.223-13.907-21.908z" fill="#fb2b3a"/></g><g><circle cx="300.813" cy="333.779" fill="#fedf30" r="24.209"/></g><g><path d="m297.207 333.779c0-9.686 5.69-18.039 13.907-21.91-3.126-1.473-6.617-2.3-10.302-2.3-13.37 0-24.209 10.839-24.209 24.209s10.839 24.209 24.209 24.209c3.685 0 7.175-.827 10.302-2.3-8.217-3.869-13.907-12.223-13.907-21.908z" fill="#fed402"/></g><g><g><circle cx="211.702" cy="381.167" fill="#fff" r="7.5"/></g><g><circle cx="300.298" cy="381.167" fill="#fff" r="7.5"/></g><g><g><circle cx="349.231" cy="401.771" fill="#fff" r="7.5"/></g><g><circle cx="162.769" cy="401.771" fill="#fff" r="7.5"/></g></g><g><circle cx="256" cy="411.042" fill="#fff" r="7.5"/></g><g><circle cx="283.3" cy="230.761" fill="#fedf30" r="7.5"/></g><g><circle cx="190.583" cy="311.115" fill="#fedf30" r="7.5"/></g><g><circle cx="255.485" cy="311.115" fill="#fedf30" r="7.5"/></g><g><circle cx="256" cy="130.833" fill="#fedf30" r="7.5"/></g></g></g></g></svg>