<svg height="464pt" viewBox="0 0 464.88475 464" width="464pt" xmlns="http://www.w3.org/2000/svg"><path d="m32.882812 256.441406c-17.671874 0-32 14.328125-32 32v32c0 17.675782 14.328126 32 32 32h347.441407c-6.085938-33.042968-16.019531-65.261718-29.601563-96zm0 0" fill="#f7f9f2"/><path d="m464.882812 420.601562c0 24.300782-19.699218 44-44 44-24.296874 0-44-19.699218-44-44 0-24.300781 19.703126-44 44-44 24.300782 0 44 19.699219 44 44zm0 0" fill="#f7f9f2"/><path d="m256.882812.441406c-114.875 0-208 93.125-208 208v48h301.839844c13.582032 30.738282 23.515625 62.957032 29.601563 96l6.242187 40.5625c8.316406-10.464844 20.953125-16.5625 34.316406-16.5625 9.539063-.023437 18.816407 3.097656 26.402344 8.882813l11.121094-80.882813c4.335938-31.816406 6.5-63.890625 6.476562-96 0-114.875-93.121093-208-208-208zm0 0" fill="#ff3314"/><path d="m408.804688 325.640625c-16.359376-11.753906-31.769532-24.78125-46.082032-38.957031 7.621094 21.410156 13.507813 43.402344 17.601563 65.757812l6.242187 40.5625c8.316406-10.464844 20.953125-16.5625 34.316406-16.5625 9.539063-.023437 18.816407 3.097656 26.402344 8.882813l4.480469-32.882813c-14.875-8.011718-29.226563-16.960937-42.960937-26.800781zm0 0" fill="#b21800"/><path d="m379.765625 349.5625c-6.15625-32.03125-15.894531-63.269531-29.042969-93.121094l-38.316406.480469c5.933594 9.734375 10.203125 20.386719 12.636719 31.519531 2.394531 11.277344-.929688 23.011719-8.878907 31.359375-9.441406 8.722657-24 9.28125-36.558593 9.203125h-165.679688c-14.953125.941406-29.941406-1.128906-44.082031-6.082031-24.71875-10.480469-38.71875-39.441406-36.960938-66.480469 0-1.359375-14.558593 3.519532-16 4.160156-4.710937 2.40625-8.648437 6.09375-11.359374 10.640626-4.636719 11.453124-6.394532 23.871093-5.117188 36.160156 0 12.960937.796875 27.519531 10.238281 36.480468 9.441407 8.960938 22.238281 8.558594 34.398438 8.558594h335.363281c-.242188-.878906-.402344-1.917968-.640625-2.878906zm0 0" fill="#b8b9b4"/><path d="m313.363281 183.480469-4.71875-8-2.960937 20.640625c-3.277344 20.953125-21.351563 36.378906-42.558594 36.320312h-117.199219c-26.773437.222656-48.691406-21.230468-49.042969-48 .050782-69.160156 34.46875-133.773437 91.839844-172.398437-83.667968 29.019531-139.789062 107.839843-139.839844 196.398437v48h302.960938c-10.6875-25.386718-23.5625-49.800781-38.480469-72.960937zm0 0" fill="#b21800"/><path d="m444.882812 448.441406c-16.722656.007813-32.003906-9.464844-39.4375-24.445312-7.429687-14.984375-5.726562-32.882813 4.398438-46.195313-21.535156 5.484375-35.601562 26.160157-32.792969 48.203125 2.808594 22.042969 21.613281 38.53125 43.832031 38.4375 13.777344.039063 26.765626-6.425781 35.042969-17.4375-3.601562.96875-7.3125 1.453125-11.042969 1.4375zm0 0" fill="#b8b9b4"/><path d="m426.882812 88.441406c-36.050781-50.957031-93.085937-83.027344-155.359374-87.359375 10.882812 20.320313 34.640624 43.121094 65.921874 61.199219 32.878907 19.042969 66.160157 28.160156 89.4375 26.160156zm0 0" fill="#ff7561"/></svg>