<?xml version="1.0" encoding="iso-8859-1"?>
<!-- Generator: Adobe Illustrator 19.0.0, SVG Export Plug-In . SVG Version: 6.00 Build 0)  -->
<svg version="1.1" id="Capa_1" xmlns="http://www.w3.org/2000/svg" xmlns:xlink="http://www.w3.org/1999/xlink" x="0px" y="0px"
	 viewBox="0 0 512 512" style="enable-background:new 0 0 512 512;" xml:space="preserve">
<path style="fill:#3E8942;" d="M428.172,493.414c12.667-14.903,36.889-35.924,73.927-34.505c7.609,0.292,12.494-8.17,8.437-14.614
	c-19.749-31.365-13.654-62.853-7.081-81.274c2.956-8.284-1.84-17.285-10.351-19.501c-46.372-12.076-66.948-49.119-75.961-74.516
	c-3.317-9.348-15.246-12.239-22.239-5.204c-37.214,37.434-82.927,17.596-82.927,17.596l-50.234,87.008
	c0,0,40.035,29.669,26.224,80.615c-2.595,9.573,5.873,18.458,15.627,16.657c26.5-4.892,68.87-5.594,102.513,28.527
	C412.283,500.464,422.477,500.115,428.172,493.414z"/>
<path style="fill:#2F7531;" d="M361.754,436.278c4.189,4.248,11.102,4.012,14.966-0.534c8.593-10.108,25.022-24.368,50.145-23.405
	c5.161,0.198,8.475-5.541,5.723-9.912c-13.395-21.275-9.261-42.634-4.804-55.13c2.005-5.619-1.248-11.725-7.022-13.229
	c-31.454-8.191-52.11-51.895-52.493-52.491c-29.354,11.504-56.293-0.183-56.293-0.183l-50.234,87.008
	c0,0,23.591,17.487,28.306,48.66C290.756,417.097,338.932,413.133,361.754,436.278z"/>
<path style="fill:#3E8942;" d="M331.282,65.142c-19.24-3.519-49.557-13.985-66.845-46.77c-3.552-6.735-13.322-6.735-16.874,0
	c-17.288,32.786-47.606,43.251-66.845,46.77c-8.651,1.582-14.05,10.236-11.713,18.715c12.728,46.196-9.065,82.539-26.552,103.043
	c-6.437,7.547-2.976,19.323,6.612,21.861c51.025,13.512,56.702,63.018,56.702,63.018h100.467c0,0,5.676-49.506,56.702-63.018
	c9.588-2.539,13.048-14.315,6.612-21.861c-17.487-20.504-39.28-56.846-26.552-103.043C345.331,75.379,339.933,66.726,331.282,65.142
	z"/>
<path style="fill:#2F7531;" d="M315.01,151.231c1.584-5.752-2.077-11.621-7.946-12.695c-13.05-2.387-33.615-9.486-45.342-31.724
	c-2.41-4.569-9.037-4.569-11.446,0c-11.728,22.239-32.291,29.337-45.342,31.724c-5.868,1.073-9.53,6.943-7.946,12.695
	c8.633,31.336-18.888,71.076-19.211,71.706c24.639,19.669,27.988,48.843,27.988,48.843h100.467c0,0,3.348-29.174,27.988-48.843
	C333.898,222.308,306.376,182.567,315.01,151.231z"/>
<path style="fill:#3E8942;" d="M8.545,363.022c6.573,18.422,12.667,49.909-7.081,81.274c-4.057,6.444,0.828,14.906,8.437,14.614
	c37.037-1.421,61.26,19.602,73.927,34.505c5.696,6.701,15.89,7.049,22.064,0.786c33.644-34.121,76.013-33.419,102.513-28.527
	c9.754,1.801,18.222-7.084,15.627-16.657c-13.811-50.946,26.224-80.615,26.224-80.615l-50.234-87.008
	c0,0-45.712,19.837-82.926-17.596c-6.993-7.034-18.921-4.142-22.239,5.204c-9.013,25.397-29.59,62.44-75.961,74.516
	C10.385,345.737,5.589,354.738,8.545,363.022z"/>
<path style="fill:#2F7531;" d="M91.235,334.069c-5.773,1.503-9.025,7.609-7.022,13.229c4.458,12.495,8.593,33.854-4.804,55.13
	c-2.752,4.371,0.561,10.11,5.723,9.912c25.123-0.963,41.553,13.297,50.145,23.405c3.864,4.545,10.778,4.782,14.966,0.534
	c22.821-23.145,70.998-19.181,71.705-19.215c4.714-31.172,28.306-48.66,28.306-48.66l-50.234-87.008c0,0-26.94,11.687-56.293,0.183
	C143.345,282.173,122.69,325.878,91.235,334.069z"/>
<path style="fill:#67B758;" d="M351.338,405.639l-12.734-41.943l42.623,24.608l17.528,57.737c1.24,4.084,5.555,6.388,9.638,5.149
	c4.081-1.24,6.387-5.554,5.149-9.637l-12.734-41.943l46.715,26.971c3.696,2.134,8.421,0.867,10.554-2.828
	c2.134-3.695,0.867-8.421-2.828-10.554l-46.715-26.971l42.691-9.943c4.157-0.968,6.739-5.124,5.772-9.278
	c-0.968-4.156-5.122-6.74-9.278-5.773l-58.766,13.689l-42.623-24.608l42.691-9.943c4.157-0.968,6.739-5.124,5.772-9.278
	c-0.968-4.156-5.122-6.74-9.278-5.773l-58.767,13.688l-36.025-20.799l-7.726,13.382l36.025,20.799l17.53,57.738
	c1.24,4.084,5.555,6.388,9.638,5.149C350.272,414.037,352.577,409.722,351.338,405.639z"/>
<path style="fill:#4A994A;" d="M424.596,382.485c-1.077-5.469-1.287-10.739-0.962-15.642l-34.68,8.079l-42.623-24.608l42.691-9.943
	c4.157-0.968,6.739-5.123,5.772-9.278c-0.968-4.156-5.122-6.74-9.278-5.773l-58.767,13.688l-36.025-20.799l-7.726,13.382
	l36.025,20.799l17.53,57.738c1.24,4.084,5.555,6.388,9.638,5.149c4.083-1.239,6.387-5.554,5.148-9.637l-12.734-41.943l42.623,24.608
	l10.344,34.073c4.085-2.733,8.753-5.186,14.028-6.988l-4.791-15.78l22.022,12.715c1.321-0.035,2.663-0.036,4.035,0.016
	c5.161,0.198,8.475-5.542,5.723-9.912c-0.732-1.162-1.402-2.325-2.033-3.487l-22.022-12.715L424.596,382.485z"/>
<path style="fill:#67B758;" d="M293.682,175.57l-29.957,31.999v-49.216l41.237-44.047c2.916-3.115,2.755-8.006-0.361-10.922
	c-3.114-2.913-8.003-2.755-10.921,0.361l-29.956,31.998V81.802c0-4.268-3.459-7.726-7.726-7.726c-4.267,0-7.726,3.458-7.726,7.726
	v53.942l-29.957-31.999c-2.917-3.115-7.807-3.275-10.921-0.361c-3.115,2.916-3.277,7.806-0.361,10.922l41.238,44.047v49.216
	l-29.957-31.999c-2.917-3.115-7.807-3.275-10.921-0.361c-3.115,2.916-3.277,7.806-0.361,10.922l41.238,44.05v41.599h15.453v-41.599
	l41.237-44.05c2.916-3.115,2.755-8.006-0.361-10.922C301.488,172.295,296.6,172.456,293.682,175.57z"/>
<path style="fill:#4A994A;" d="M304.963,186.132c2.916-3.115,2.755-8.006-0.361-10.922c-3.114-2.915-8.003-2.755-10.921,0.361
	l-29.956,31.999v-49.216l24.336-25.995c-4.409-2.171-8.868-4.987-13.066-8.655l-11.27,12.039v-25.429
	c-0.691-1.126-1.363-2.288-2.004-3.504c-2.41-4.569-9.037-4.569-11.446,0c-0.641,1.216-1.312,2.378-2.004,3.504v25.429
	l-11.27-12.039c-4.198,3.667-8.657,6.484-13.066,8.655l24.337,25.995v49.216l-29.957-31.999c-2.917-3.115-7.807-3.275-10.921-0.361
	c-3.115,2.916-3.277,7.806-0.361,10.922l41.238,44.05v41.599h15.453v-41.599L304.963,186.132z"/>
<path style="fill:#67B758;" d="M122.977,340.369l42.691,9.943l-42.623,24.608l-58.765-13.688c-4.157-0.968-8.31,1.616-9.278,5.773
	c-0.966,4.154,1.616,8.308,5.772,9.278l42.691,9.943L56.75,413.198c-3.696,2.134-4.961,6.859-2.828,10.554
	c2.134,3.695,6.859,4.961,10.554,2.828l46.716-26.971l-12.734,41.943c-1.239,4.084,1.067,8.398,5.149,9.637
	c4.084,1.239,8.398-1.065,9.638-5.149l17.527-57.736l42.623-24.608l-12.734,41.943c-1.239,4.084,1.067,8.398,5.149,9.637
	c4.084,1.239,8.398-1.065,9.638-5.149l17.53-57.738l36.025-20.799l-7.726-13.382l-36.025,20.799l-58.767-13.688
	c-4.157-0.968-8.31,1.616-9.278,5.773C116.238,335.247,118.821,339.401,122.977,340.369z"/>
<path style="fill:#4A994A;" d="M126.483,325.32c-4.157-0.968-8.31,1.616-9.278,5.773c-0.967,4.155,1.616,8.308,5.772,9.278
	l42.691,9.943l-42.623,24.608l-34.68-8.079c0.325,4.904,0.114,10.173-0.962,15.642l16.062,3.742l-22.022,12.715
	c-0.63,1.161-1.3,2.324-2.033,3.486c-2.752,4.371,0.561,10.11,5.723,9.912c1.373-0.053,2.715-0.052,4.036-0.016l22.022-12.715
	l-4.79,15.78c5.275,1.802,9.943,4.255,14.028,6.988l10.344-34.073l42.623-24.608l-12.734,41.943
	c-1.239,4.084,1.067,8.398,5.149,9.637c4.084,1.239,8.398-1.065,9.638-5.149l17.53-57.738l36.025-20.799l-7.726-13.382
	l-36.025,20.799L126.483,325.32z"/>
<circle style="fill:#AF3333;" cx="218.82" cy="275.079" r="58.52"/>
<circle style="fill:#E04141;" cx="297.176" cy="275.079" r="66.014"/>
<path style="fill:#C93939;" d="M352.114,311.695c-4.445-47.843-41.036-86.382-87.955-93.795
	c-19.735,11.414-33.005,32.745-33.005,57.183c0,36.46,29.557,66.017,66.017,66.017C320.091,341.1,340.277,329.427,352.114,311.695z"
	/>
<circle style="fill:#FF5555;" cx="251.961" cy="320.314" r="77.305"/>
<path style="fill:#E04141;" d="M247.68,310.868c0-25.805,12.678-48.655,32.11-62.697c-8.632-3.331-18.023-5.161-27.829-5.161
	c-42.692,0-77.301,34.609-77.301,77.301s34.609,77.301,77.301,77.301c16.887,0,32.517-5.421,45.233-14.609
	C268.245,371.833,247.68,343.754,247.68,310.868z"/>
<g>
</g>
<g>
</g>
<g>
</g>
<g>
</g>
<g>
</g>
<g>
</g>
<g>
</g>
<g>
</g>
<g>
</g>
<g>
</g>
<g>
</g>
<g>
</g>
<g>
</g>
<g>
</g>
<g>
</g>
</svg>
