<svg height="512" viewBox="0 0 58 58" width="512" xmlns="http://www.w3.org/2000/svg"><g id="Page-1" fill="none" fill-rule="evenodd"><g id="031---Presents" fill-rule="nonzero"><path id="Shape" d="m50 29.1v-6.1h-48v33c.0032948 1.1032019.89679813 1.9967052 2 2h34z" fill="#e64c3c"/><g fill="#c03a2b"><path id="Shape" d="m6 55c-.55228475 0-1-.4477153-1-1v-2c0-.5522847.44771525-1 1-1s1 .4477153 1 1v2c0 .5522847-.44771525 1-1 1z"/><path id="Shape" d="m6 49c-.55228475 0-1-.4477153-1-1v-18c0-.5522847.44771525-1 1-1s1 .4477153 1 1v18c0 .5522847-.44771525 1-1 1z"/><path id="Rectangle-path" d="m2 24h48v3h-48z"/></g><path id="Shape" d="m41.85 7.68c1.5301812-.64231615 2.9350451-1.54955354 4.15-2.68l1 4 4-1c-1 6-6 8-10 8l-15 2.5-15-2.5c-4 0-9-2-10-8l4 1 1-4c1.21753801 1.1319669 2.62596186 2.03931688 4.16 2.68l15.84 3z" fill="#f29c1f"/><path id="Shape" d="m26 10s-1.9-8.619-10.342-9.977c-.4741831-.07116921-.9579273.03569622-1.358.3-1.335.867-4.131 3.361-4.293 9.129-.01085906.37820884.0877603.7515038.284 1.075.85 1.389 3.79 4.982 11.7 5.569z" fill="#f0c419"/><path id="Shape" d="m26.007 10s1.9-8.619 10.342-9.977c.4738699-.07130018.9573486.03558529 1.357.3 1.336.867 4.132 3.361 4.293 9.129.0112168.37811611-.0870576.7514198-.283 1.075-.851 1.391-3.8 4.993-11.737 5.571z" fill="#f0c419"/><path id="Shape" d="m2 16h48c1.1045695 0 2 .8954305 2 2v5c0 .5522847-.4477153 1-1 1h-50c-.55228475 0-1-.4477153-1-1v-5c0-1.1045695.8954305-2 2-2z" fill="#e64c3c"/><path id="Rectangle-path" d="m21 16h10v8h-10z" fill="#f0c419"/><path id="Rectangle-path" d="m22 24h8v34h-8z" fill="#f29c1f"/><path id="Shape" d="m36 42h20v14c0 1.1045695-.8954305 2-2 2h-16c-1.1045695 0-2-.8954305-2-2z" fill="#2980ba"/><path id="Shape" d="m46 34s-.882-4.549-6.783-5.947c-.7909476-.1826255-1.6141354.12819-2.087.788-1.1276743 1.507755-1.8555892 3.2762854-2.116 5.141-.0777085.6314943.1442647 1.2630079.6 1.707 2.0140289 1.7960803 4.7107966 2.6252651 7.386 2.271z" fill="#f0c419"/><path id="Shape" d="m46 34s.882-4.549 6.783-5.947c.7909476-.1826255 1.6141354.12819 2.087.788 1.1276743 1.507755 1.8555892 3.2762854 2.116 5.141.0777085.6314943-.1442647 1.2630079-.6 1.707-2.0140289 1.7960803-4.7107966 2.6252651-7.386 2.271z" fill="#f0c419"/><path id="Rectangle-path" d="m43 44h6v14h-6z" fill="#f29c1f"/><path id="Shape" d="m22.711 11.48c-.3572565-.0000091-.6873717-.1906068-.866-.5-.446-.769-2.064-3.332-4.162-4.034-.3394023-.11325319-.5926031-.39897243-.6642242-.74953005-.071621-.35055763.0492187-.71269559.317-.95000002.2677814-.23730443.6418219-.31372313.9812242-.20046993 2.687.9 4.572 3.744 5.258 4.926.178453.3090879.1786463.6898553.0005074.9991243-.1781389.3092689-.5076037.5001532-.8645074.5008757z" fill="#f29c1f"/><path id="Shape" d="m29.289 11.48c-.3569037-.0007225-.6863685-.1916068-.8645074-.5008757-.1781389-.309269-.1779456-.6900364.0005074-.9991243.686-1.18 2.575-4.029 5.258-4.928.3394023-.11325321.7134429-.03683451.9812242.20046992s.388621.5994424.317.95000003-.3248219.63627687-.6642242.74953005c-2.1.7-3.716 3.265-4.162 4.034-.1801467.3070851-.5099768.4952329-.866.494z" fill="#f29c1f"/><path id="Shape" d="m24 10h4c1.1045695 0 2 .8954305 2 2v4h-8v-4c0-1.1045695.8954305-2 2-2z" fill="#f3d55b"/><path id="Shape" d="m45 34h2c1.1045695 0 2 .8954305 2 2v2h-6v-2c0-1.1045695.8954305-2 2-2z" fill="#f3d55b"/><path id="Shape" d="m36 38h20c1.1045695 0 2 .8954305 2 2v3c0 .5522847-.4477153 1-1 1h-22c-.5522847 0-1-.4477153-1-1v-3c0-1.1045695.8954305-2 2-2z" fill="#3b97d3"/><path id="Rectangle-path" d="m42 38h8v6h-8z" fill="#f0c419"/></g></g></svg>